<svg xmlns="http://www.w3.org/2000/svg" xmlns:xlink="http://www.w3.org/1999/xlink" width="600" height="400" viewBox="0 0 2400 1600">
<defs>
  <clipPath id="clip180">
    <rect x="0" y="0" width="2400" height="1600"></rect>
  </clipPath>
</defs>
<path clip-path="url(#clip180)" d="
M0 1600 L2400 1600 L2400 0 L0 0  Z
  " fill="#ffffff" fill-rule="evenodd" fill-opacity="1"></path>
<defs>
  <clipPath id="clip181">
    <rect x="480" y="0" width="1681" height="1600"></rect>
  </clipPath>
</defs>
<path clip-path="url(#clip180)" d="
M273.146 1456.21 L2352.76 1456.21 L2352.76 127.792 L273.146 127.792  Z
  " fill="#ffffff" fill-rule="evenodd" fill-opacity="1"></path>
<defs>
  <clipPath id="clip182">
    <rect x="273" y="127" width="2081" height="1329"></rect>
  </clipPath>
</defs>
<polyline clip-path="url(#clip182)" style="stroke:#000000; stroke-linecap:butt; stroke-linejoin:round; stroke-width:2; stroke-opacity:0.1; fill:none" points="
  273.146,1456.21 273.146,127.792 
  "></polyline>
<polyline clip-path="url(#clip182)" style="stroke:#000000; stroke-linecap:butt; stroke-linejoin:round; stroke-width:2; stroke-opacity:0.1; fill:none" points="
  793.048,1456.21 793.048,127.792 
  "></polyline>
<polyline clip-path="url(#clip182)" style="stroke:#000000; stroke-linecap:butt; stroke-linejoin:round; stroke-width:2; stroke-opacity:0.1; fill:none" points="
  1312.95,1456.21 1312.95,127.792 
  "></polyline>
<polyline clip-path="url(#clip182)" style="stroke:#000000; stroke-linecap:butt; stroke-linejoin:round; stroke-width:2; stroke-opacity:0.1; fill:none" points="
  1832.85,1456.21 1832.85,127.792 
  "></polyline>
<polyline clip-path="url(#clip182)" style="stroke:#000000; stroke-linecap:butt; stroke-linejoin:round; stroke-width:2; stroke-opacity:0.1; fill:none" points="
  2352.76,1456.21 2352.76,127.792 
  "></polyline>
<polyline clip-path="url(#clip180)" style="stroke:#000000; stroke-linecap:butt; stroke-linejoin:round; stroke-width:4; stroke-opacity:1; fill:none" points="
  273.146,1456.21 2352.76,1456.21 
  "></polyline>
<polyline clip-path="url(#clip180)" style="stroke:#000000; stroke-linecap:butt; stroke-linejoin:round; stroke-width:4; stroke-opacity:1; fill:none" points="
  273.146,1456.21 273.146,1437.31 
  "></polyline>
<polyline clip-path="url(#clip180)" style="stroke:#000000; stroke-linecap:butt; stroke-linejoin:round; stroke-width:4; stroke-opacity:1; fill:none" points="
  793.048,1456.21 793.048,1437.31 
  "></polyline>
<polyline clip-path="url(#clip180)" style="stroke:#000000; stroke-linecap:butt; stroke-linejoin:round; stroke-width:4; stroke-opacity:1; fill:none" points="
  1312.95,1456.21 1312.95,1437.31 
  "></polyline>
<polyline clip-path="url(#clip180)" style="stroke:#000000; stroke-linecap:butt; stroke-linejoin:round; stroke-width:4; stroke-opacity:1; fill:none" points="
  1832.85,1456.21 1832.85,1437.31 
  "></polyline>
<polyline clip-path="url(#clip180)" style="stroke:#000000; stroke-linecap:butt; stroke-linejoin:round; stroke-width:4; stroke-opacity:1; fill:none" points="
  2352.76,1456.21 2352.76,1437.31 
  "></polyline>
<path clip-path="url(#clip180)" d="M273.146 1497.38 Q266.375 1497.38 262.946 1504.06 Q259.561 1510.7 259.561 1524.07 Q259.561 1537.4 262.946 1544.08 Q266.375 1550.72 273.146 1550.72 Q279.96 1550.72 283.345 1544.08 Q286.774 1537.4 286.774 1524.07 Q286.774 1510.7 283.345 1504.06 Q279.96 1497.38 273.146 1497.38 M273.146 1490.44 Q284.04 1490.44 289.769 1499.07 Q295.541 1507.67 295.541 1524.07 Q295.541 1540.44 289.769 1549.07 Q284.04 1557.67 273.146 1557.67 Q262.252 1557.67 256.479 1549.07 Q250.75 1540.44 250.75 1524.07 Q250.75 1507.67 256.479 1499.07 Q262.252 1490.44 273.146 1490.44 Z" fill="#000000" fill-rule="evenodd" fill-opacity="1"></path><path clip-path="url(#clip180)" d="M774.819 1491.61 L809.237 1491.61 L809.237 1498.99 L782.849 1498.99 L782.849 1514.87 Q784.758 1514.22 786.668 1513.92 Q788.578 1513.57 790.487 1513.57 Q801.338 1513.57 807.675 1519.52 Q814.012 1525.46 814.012 1535.62 Q814.012 1546.08 807.501 1551.89 Q800.991 1557.67 789.142 1557.67 Q785.062 1557.67 780.809 1556.97 Q776.599 1556.28 772.085 1554.89 L772.085 1546.08 Q775.991 1548.2 780.158 1549.25 Q784.324 1550.29 788.968 1550.29 Q796.477 1550.29 800.861 1546.34 Q805.244 1542.39 805.244 1535.62 Q805.244 1528.85 800.861 1524.9 Q796.477 1520.95 788.968 1520.95 Q785.453 1520.95 781.937 1521.73 Q778.465 1522.51 774.819 1524.16 L774.819 1491.61 Z" fill="#000000" fill-rule="evenodd" fill-opacity="1"></path><path clip-path="url(#clip180)" d="M1265.49 1549.03 L1279.81 1549.03 L1279.81 1499.59 L1264.23 1502.72 L1264.23 1494.73 L1279.73 1491.61 L1288.49 1491.61 L1288.49 1549.03 L1302.82 1549.03 L1302.82 1556.41 L1265.49 1556.41 L1265.49 1549.03 Z" fill="#000000" fill-rule="evenodd" fill-opacity="1"></path><path clip-path="url(#clip180)" d="M1339.27 1497.38 Q1332.5 1497.38 1329.07 1504.06 Q1325.69 1510.7 1325.69 1524.07 Q1325.69 1537.4 1329.07 1544.08 Q1332.5 1550.72 1339.27 1550.72 Q1346.09 1550.72 1349.47 1544.08 Q1352.9 1537.4 1352.9 1524.07 Q1352.9 1510.7 1349.47 1504.06 Q1346.09 1497.38 1339.27 1497.38 M1339.27 1490.44 Q1350.17 1490.44 1355.9 1499.07 Q1361.67 1507.67 1361.67 1524.07 Q1361.67 1540.44 1355.9 1549.07 Q1350.17 1557.67 1339.27 1557.67 Q1328.38 1557.67 1322.61 1549.07 Q1316.88 1540.44 1316.88 1524.07 Q1316.88 1507.67 1322.61 1499.07 Q1328.38 1490.44 1339.27 1490.44 Z" fill="#000000" fill-rule="evenodd" fill-opacity="1"></path><path clip-path="url(#clip180)" d="M1786.33 1549.03 L1800.65 1549.03 L1800.65 1499.59 L1785.07 1502.72 L1785.07 1494.73 L1800.56 1491.61 L1809.33 1491.61 L1809.33 1549.03 L1823.65 1549.03 L1823.65 1556.41 L1786.33 1556.41 L1786.33 1549.03 Z" fill="#000000" fill-rule="evenodd" fill-opacity="1"></path><path clip-path="url(#clip180)" d="M1841.45 1491.61 L1875.87 1491.61 L1875.87 1498.99 L1849.48 1498.99 L1849.48 1514.87 Q1851.39 1514.22 1853.3 1513.92 Q1855.21 1513.57 1857.12 1513.57 Q1867.97 1513.57 1874.3 1519.52 Q1880.64 1525.46 1880.64 1535.62 Q1880.64 1546.08 1874.13 1551.89 Q1867.62 1557.67 1855.77 1557.67 Q1851.69 1557.67 1847.44 1556.97 Q1843.23 1556.28 1838.71 1554.89 L1838.71 1546.08 Q1842.62 1548.2 1846.79 1549.25 Q1850.95 1550.29 1855.6 1550.29 Q1863.1 1550.29 1867.49 1546.34 Q1871.87 1542.39 1871.87 1535.62 Q1871.87 1528.85 1867.49 1524.9 Q1863.1 1520.95 1855.6 1520.95 Q1852.08 1520.95 1848.57 1521.73 Q1845.09 1522.51 1841.45 1524.16 L1841.45 1491.61 Z" fill="#000000" fill-rule="evenodd" fill-opacity="1"></path><path clip-path="url(#clip180)" d="M2312.96 1549.03 L2343.55 1549.03 L2343.55 1556.41 L2302.41 1556.41 L2302.41 1549.03 Q2307.4 1543.86 2315.99 1535.18 Q2324.63 1526.46 2326.84 1523.94 Q2331.05 1519.21 2332.7 1515.96 Q2334.4 1512.66 2334.4 1509.49 Q2334.4 1504.32 2330.75 1501.07 Q2327.15 1497.81 2321.33 1497.81 Q2317.21 1497.81 2312.61 1499.25 Q2308.05 1500.68 2302.84 1503.59 L2302.84 1494.73 Q2308.14 1492.61 2312.74 1491.52 Q2317.34 1490.44 2321.16 1490.44 Q2331.23 1490.44 2337.22 1495.47 Q2343.21 1500.51 2343.21 1508.93 Q2343.21 1512.92 2341.69 1516.52 Q2340.21 1520.08 2336.26 1524.94 Q2335.18 1526.2 2329.36 1532.23 Q2323.55 1538.22 2312.96 1549.03 Z" fill="#000000" fill-rule="evenodd" fill-opacity="1"></path><path clip-path="url(#clip180)" d="M2380.71 1497.38 Q2373.94 1497.38 2370.51 1504.06 Q2367.12 1510.7 2367.12 1524.07 Q2367.12 1537.4 2370.51 1544.08 Q2373.94 1550.72 2380.71 1550.72 Q2387.52 1550.72 2390.91 1544.08 Q2394.34 1537.4 2394.34 1524.07 Q2394.34 1510.7 2390.91 1504.06 Q2387.52 1497.38 2380.71 1497.38 M2380.71 1490.44 Q2391.6 1490.44 2397.33 1499.07 Q2403.1 1507.67 2403.1 1524.07 Q2403.1 1540.44 2397.33 1549.07 Q2391.6 1557.67 2380.71 1557.67 Q2369.81 1557.67 2364.04 1549.07 Q2358.31 1540.44 2358.31 1524.07 Q2358.31 1507.67 2364.04 1499.07 Q2369.81 1490.44 2380.71 1490.44 Z" fill="#000000" fill-rule="evenodd" fill-opacity="1"></path><polyline clip-path="url(#clip182)" style="stroke:#000000; stroke-linecap:butt; stroke-linejoin:round; stroke-width:2; stroke-opacity:0.1; fill:none" points="
  273.146,1266.43 2352.76,1266.43 
  "></polyline>
<polyline clip-path="url(#clip182)" style="stroke:#000000; stroke-linecap:butt; stroke-linejoin:round; stroke-width:2; stroke-opacity:0.1; fill:none" points="
  273.146,1029.22 2352.76,1029.22 
  "></polyline>
<polyline clip-path="url(#clip182)" style="stroke:#000000; stroke-linecap:butt; stroke-linejoin:round; stroke-width:2; stroke-opacity:0.1; fill:none" points="
  273.146,792 2352.76,792 
  "></polyline>
<polyline clip-path="url(#clip182)" style="stroke:#000000; stroke-linecap:butt; stroke-linejoin:round; stroke-width:2; stroke-opacity:0.1; fill:none" points="
  273.146,554.783 2352.76,554.783 
  "></polyline>
<polyline clip-path="url(#clip182)" style="stroke:#000000; stroke-linecap:butt; stroke-linejoin:round; stroke-width:2; stroke-opacity:0.1; fill:none" points="
  273.146,317.566 2352.76,317.566 
  "></polyline>
<polyline clip-path="url(#clip180)" style="stroke:#000000; stroke-linecap:butt; stroke-linejoin:round; stroke-width:4; stroke-opacity:1; fill:none" points="
  273.146,1456.21 273.146,127.792 
  "></polyline>
<polyline clip-path="url(#clip180)" style="stroke:#000000; stroke-linecap:butt; stroke-linejoin:round; stroke-width:4; stroke-opacity:1; fill:none" points="
  273.146,1266.43 292.043,1266.43 
  "></polyline>
<polyline clip-path="url(#clip180)" style="stroke:#000000; stroke-linecap:butt; stroke-linejoin:round; stroke-width:4; stroke-opacity:1; fill:none" points="
  273.146,1029.22 292.043,1029.22 
  "></polyline>
<polyline clip-path="url(#clip180)" style="stroke:#000000; stroke-linecap:butt; stroke-linejoin:round; stroke-width:4; stroke-opacity:1; fill:none" points="
  273.146,792 292.043,792 
  "></polyline>
<polyline clip-path="url(#clip180)" style="stroke:#000000; stroke-linecap:butt; stroke-linejoin:round; stroke-width:4; stroke-opacity:1; fill:none" points="
  273.146,554.783 292.043,554.783 
  "></polyline>
<polyline clip-path="url(#clip180)" style="stroke:#000000; stroke-linecap:butt; stroke-linejoin:round; stroke-width:4; stroke-opacity:1; fill:none" points="
  273.146,317.566 292.043,317.566 
  "></polyline>
<path clip-path="url(#clip180)" d="M73.3878 1239.81 Q66.617 1239.81 63.1882 1246.49 Q59.8028 1253.13 59.8028 1266.5 Q59.8028 1279.82 63.1882 1286.51 Q66.617 1293.15 73.3878 1293.15 Q80.202 1293.15 83.5874 1286.51 Q87.0162 1279.82 87.0162 1266.5 Q87.0162 1253.13 83.5874 1246.49 Q80.202 1239.81 73.3878 1239.81 M73.3878 1232.86 Q84.2819 1232.86 90.011 1241.5 Q95.7836 1250.09 95.7836 1266.5 Q95.7836 1282.86 90.011 1291.5 Q84.2819 1300.09 73.3878 1300.09 Q62.4938 1300.09 56.7213 1291.5 Q50.9921 1282.86 50.9921 1266.5 Q50.9921 1250.09 56.7213 1241.5 Q62.4938 1232.86 73.3878 1232.86 Z" fill="#000000" fill-rule="evenodd" fill-opacity="1"></path><path clip-path="url(#clip180)" d="M111.191 1287.81 L120.349 1287.81 L120.349 1298.83 L111.191 1298.83 L111.191 1287.81 Z" fill="#000000" fill-rule="evenodd" fill-opacity="1"></path><path clip-path="url(#clip180)" d="M158.196 1239.81 Q151.426 1239.81 147.997 1246.49 Q144.611 1253.13 144.611 1266.5 Q144.611 1279.82 147.997 1286.51 Q151.426 1293.15 158.196 1293.15 Q165.011 1293.15 168.396 1286.51 Q171.825 1279.82 171.825 1266.5 Q171.825 1253.13 168.396 1246.49 Q165.011 1239.81 158.196 1239.81 M158.196 1232.86 Q169.09 1232.86 174.82 1241.5 Q180.592 1250.09 180.592 1266.5 Q180.592 1282.86 174.82 1291.5 Q169.09 1300.09 158.196 1300.09 Q147.302 1300.09 141.53 1291.5 Q135.801 1282.86 135.801 1266.5 Q135.801 1250.09 141.53 1241.5 Q147.302 1232.86 158.196 1232.86 Z" fill="#000000" fill-rule="evenodd" fill-opacity="1"></path><path clip-path="url(#clip180)" d="M214.75 1239.81 Q207.979 1239.81 204.55 1246.49 Q201.165 1253.13 201.165 1266.5 Q201.165 1279.82 204.55 1286.51 Q207.979 1293.15 214.75 1293.15 Q221.564 1293.15 224.95 1286.51 Q228.378 1279.82 228.378 1266.5 Q228.378 1253.13 224.95 1246.49 Q221.564 1239.81 214.75 1239.81 M214.75 1232.86 Q225.644 1232.86 231.373 1241.5 Q237.146 1250.09 237.146 1266.5 Q237.146 1282.86 231.373 1291.5 Q225.644 1300.09 214.75 1300.09 Q203.856 1300.09 198.083 1291.5 Q192.354 1282.86 192.354 1266.5 Q192.354 1250.09 198.083 1241.5 Q203.856 1232.86 214.75 1232.86 Z" fill="#000000" fill-rule="evenodd" fill-opacity="1"></path><path clip-path="url(#clip180)" d="M75.2541 1002.59 Q68.4834 1002.59 65.0546 1009.27 Q61.6692 1015.91 61.6692 1029.28 Q61.6692 1042.61 65.0546 1049.29 Q68.4834 1055.93 75.2541 1055.93 Q82.0683 1055.93 85.4537 1049.29 Q88.8825 1042.61 88.8825 1029.28 Q88.8825 1015.91 85.4537 1009.27 Q82.0683 1002.59 75.2541 1002.59 M75.2541 995.645 Q86.1482 995.645 91.8773 1004.28 Q97.6499 1012.88 97.6499 1029.28 Q97.6499 1045.64 91.8773 1054.28 Q86.1482 1062.88 75.2541 1062.88 Q64.3601 1062.88 58.5876 1054.28 Q52.8584 1045.64 52.8584 1029.28 Q52.8584 1012.88 58.5876 1004.28 Q64.3601 995.645 75.2541 995.645 Z" fill="#000000" fill-rule="evenodd" fill-opacity="1"></path><path clip-path="url(#clip180)" d="M113.058 1050.59 L122.216 1050.59 L122.216 1061.62 L113.058 1061.62 L113.058 1050.59 Z" fill="#000000" fill-rule="evenodd" fill-opacity="1"></path><path clip-path="url(#clip180)" d="M148.865 1054.24 L179.464 1054.24 L179.464 1061.62 L138.318 1061.62 L138.318 1054.24 Q143.309 1049.07 151.903 1040.39 Q160.54 1031.67 162.754 1029.15 Q166.964 1024.42 168.613 1021.17 Q170.306 1017.87 170.306 1014.7 Q170.306 1009.53 166.66 1006.28 Q163.057 1003.02 157.242 1003.02 Q153.118 1003.02 148.518 1004.46 Q143.96 1005.89 138.752 1008.8 L138.752 999.942 Q144.047 997.815 148.648 996.73 Q153.249 995.645 157.068 995.645 Q167.137 995.645 173.127 1000.68 Q179.116 1005.71 179.116 1014.13 Q179.116 1018.13 177.597 1021.73 Q176.122 1025.29 172.172 1030.15 Q171.087 1031.41 165.271 1037.44 Q159.455 1043.43 148.865 1054.24 Z" fill="#000000" fill-rule="evenodd" fill-opacity="1"></path><path clip-path="url(#clip180)" d="M197.953 996.817 L232.371 996.817 L232.371 1004.2 L205.983 1004.2 L205.983 1020.08 Q207.892 1019.43 209.802 1019.13 Q211.712 1018.78 213.621 1018.78 Q224.472 1018.78 230.809 1024.72 Q237.146 1030.67 237.146 1040.83 Q237.146 1051.29 230.635 1057.1 Q224.125 1062.88 212.276 1062.88 Q208.196 1062.88 203.943 1062.18 Q199.733 1061.49 195.219 1060.1 L195.219 1051.29 Q199.125 1053.41 203.292 1054.46 Q207.458 1055.5 212.102 1055.5 Q219.611 1055.5 223.995 1051.55 Q228.378 1047.6 228.378 1040.83 Q228.378 1034.06 223.995 1030.11 Q219.611 1026.16 212.102 1026.16 Q208.587 1026.16 205.071 1026.94 Q201.599 1027.72 197.953 1029.37 L197.953 996.817 Z" fill="#000000" fill-rule="evenodd" fill-opacity="1"></path><path clip-path="url(#clip180)" d="M73.3878 765.373 Q66.617 765.373 63.1882 772.057 Q59.8028 778.697 59.8028 792.065 Q59.8028 805.39 63.1882 812.074 Q66.617 818.714 73.3878 818.714 Q80.202 818.714 83.5874 812.074 Q87.0162 805.39 87.0162 792.065 Q87.0162 778.697 83.5874 772.057 Q80.202 765.373 73.3878 765.373 M73.3878 758.428 Q84.2819 758.428 90.011 767.065 Q95.7836 775.659 95.7836 792.065 Q95.7836 808.428 90.011 817.065 Q84.2819 825.659 73.3878 825.659 Q62.4938 825.659 56.7213 817.065 Q50.9921 808.428 50.9921 792.065 Q50.9921 775.659 56.7213 767.065 Q62.4938 758.428 73.3878 758.428 Z" fill="#000000" fill-rule="evenodd" fill-opacity="1"></path><path clip-path="url(#clip180)" d="M111.191 813.376 L120.349 813.376 L120.349 824.4 L111.191 824.4 L111.191 813.376 Z" fill="#000000" fill-rule="evenodd" fill-opacity="1"></path><path clip-path="url(#clip180)" d="M139.533 759.6 L173.952 759.6 L173.952 766.978 L147.563 766.978 L147.563 782.864 Q149.473 782.213 151.382 781.909 Q153.292 781.562 155.202 781.562 Q166.052 781.562 172.389 787.508 Q178.726 793.454 178.726 803.61 Q178.726 814.07 172.215 819.886 Q165.705 825.659 153.856 825.659 Q149.776 825.659 145.523 824.964 Q141.313 824.27 136.799 822.881 L136.799 814.07 Q140.705 816.197 144.872 817.239 Q149.038 818.28 153.683 818.28 Q161.191 818.28 165.575 814.331 Q169.959 810.381 169.959 803.61 Q169.959 796.839 165.575 792.89 Q161.191 788.94 153.683 788.94 Q150.167 788.94 146.651 789.721 Q143.179 790.503 139.533 792.152 L139.533 759.6 Z" fill="#000000" fill-rule="evenodd" fill-opacity="1"></path><path clip-path="url(#clip180)" d="M214.75 765.373 Q207.979 765.373 204.55 772.057 Q201.165 778.697 201.165 792.065 Q201.165 805.39 204.55 812.074 Q207.979 818.714 214.75 818.714 Q221.564 818.714 224.95 812.074 Q228.378 805.39 228.378 792.065 Q228.378 778.697 224.95 772.057 Q221.564 765.373 214.75 765.373 M214.75 758.428 Q225.644 758.428 231.373 767.065 Q237.146 775.659 237.146 792.065 Q237.146 808.428 231.373 817.065 Q225.644 825.659 214.75 825.659 Q203.856 825.659 198.083 817.065 Q192.354 808.428 192.354 792.065 Q192.354 775.659 198.083 767.065 Q203.856 758.428 214.75 758.428 Z" fill="#000000" fill-rule="evenodd" fill-opacity="1"></path><path clip-path="url(#clip180)" d="M75.2541 528.155 Q68.4834 528.155 65.0546 534.839 Q61.6692 541.48 61.6692 554.848 Q61.6692 568.173 65.0546 574.857 Q68.4834 581.497 75.2541 581.497 Q82.0683 581.497 85.4537 574.857 Q88.8825 568.173 88.8825 554.848 Q88.8825 541.48 85.4537 534.839 Q82.0683 528.155 75.2541 528.155 M75.2541 521.211 Q86.1482 521.211 91.8773 529.848 Q97.6499 538.442 97.6499 554.848 Q97.6499 571.211 91.8773 579.848 Q86.1482 588.442 75.2541 588.442 Q64.3601 588.442 58.5876 579.848 Q52.8584 571.211 52.8584 554.848 Q52.8584 538.442 58.5876 529.848 Q64.3601 521.211 75.2541 521.211 Z" fill="#000000" fill-rule="evenodd" fill-opacity="1"></path><path clip-path="url(#clip180)" d="M113.058 576.159 L122.216 576.159 L122.216 587.183 L113.058 587.183 L113.058 576.159 Z" fill="#000000" fill-rule="evenodd" fill-opacity="1"></path><path clip-path="url(#clip180)" d="M139.099 522.383 L180.766 522.383 L180.766 526.116 L157.242 587.183 L148.084 587.183 L170.219 529.761 L139.099 529.761 L139.099 522.383 Z" fill="#000000" fill-rule="evenodd" fill-opacity="1"></path><path clip-path="url(#clip180)" d="M197.953 522.383 L232.371 522.383 L232.371 529.761 L205.983 529.761 L205.983 545.647 Q207.892 544.996 209.802 544.692 Q211.712 544.345 213.621 544.345 Q224.472 544.345 230.809 550.291 Q237.146 556.237 237.146 566.393 Q237.146 576.853 230.635 582.669 Q224.125 588.442 212.276 588.442 Q208.196 588.442 203.943 587.747 Q199.733 587.053 195.219 585.664 L195.219 576.853 Q199.125 578.98 203.292 580.021 Q207.458 581.063 212.102 581.063 Q219.611 581.063 223.995 577.114 Q228.378 573.164 228.378 566.393 Q228.378 559.622 223.995 555.673 Q219.611 551.723 212.102 551.723 Q208.587 551.723 205.071 552.504 Q201.599 553.286 197.953 554.935 L197.953 522.383 Z" fill="#000000" fill-rule="evenodd" fill-opacity="1"></path><path clip-path="url(#clip180)" d="M56.157 342.587 L70.4799 342.587 L70.4799 293.152 L54.8984 296.277 L54.8984 288.291 L70.3931 285.166 L79.1604 285.166 L79.1604 342.587 L93.4832 342.587 L93.4832 349.966 L56.157 349.966 L56.157 342.587 Z" fill="#000000" fill-rule="evenodd" fill-opacity="1"></path><path clip-path="url(#clip180)" d="M111.191 338.942 L120.349 338.942 L120.349 349.966 L111.191 349.966 L111.191 338.942 Z" fill="#000000" fill-rule="evenodd" fill-opacity="1"></path><path clip-path="url(#clip180)" d="M158.196 290.938 Q151.426 290.938 147.997 297.622 Q144.611 304.263 144.611 317.631 Q144.611 330.955 147.997 337.639 Q151.426 344.28 158.196 344.28 Q165.011 344.28 168.396 337.639 Q171.825 330.955 171.825 317.631 Q171.825 304.263 168.396 297.622 Q165.011 290.938 158.196 290.938 M158.196 283.994 Q169.09 283.994 174.82 292.631 Q180.592 301.225 180.592 317.631 Q180.592 333.994 174.82 342.631 Q169.09 351.224 158.196 351.224 Q147.302 351.224 141.53 342.631 Q135.801 333.994 135.801 317.631 Q135.801 301.225 141.53 292.631 Q147.302 283.994 158.196 283.994 Z" fill="#000000" fill-rule="evenodd" fill-opacity="1"></path><path clip-path="url(#clip180)" d="M214.75 290.938 Q207.979 290.938 204.55 297.622 Q201.165 304.263 201.165 317.631 Q201.165 330.955 204.55 337.639 Q207.979 344.28 214.75 344.28 Q221.564 344.28 224.95 337.639 Q228.378 330.955 228.378 317.631 Q228.378 304.263 224.95 297.622 Q221.564 290.938 214.75 290.938 M214.75 283.994 Q225.644 283.994 231.373 292.631 Q237.146 301.225 237.146 317.631 Q237.146 333.994 231.373 342.631 Q225.644 351.224 214.75 351.224 Q203.856 351.224 198.083 342.631 Q192.354 333.994 192.354 317.631 Q192.354 301.225 198.083 292.631 Q203.856 283.994 214.75 283.994 Z" fill="#000000" fill-rule="evenodd" fill-opacity="1"></path><path clip-path="url(#clip180)" d="M743.206 12.96 L798.023 12.96 L798.023 20.3384 L775.02 20.3384 L775.02 77.76 L766.209 77.76 L766.209 20.3384 L743.206 20.3384 L743.206 12.96 Z" fill="#000000" fill-rule="evenodd" fill-opacity="1"></path><path clip-path="url(#clip180)" d="M821.243 36.6144 Q819.898 35.8331 818.292 35.4859 Q816.729 35.0953 814.82 35.0953 Q808.049 35.0953 804.403 39.5224 Q800.801 43.906 800.801 52.1525 L800.801 77.76 L792.771 77.76 L792.771 29.1491 L800.801 29.1491 L800.801 36.7012 Q803.318 32.2741 807.355 30.1474 Q811.391 27.9773 817.164 27.9773 Q817.988 27.9773 818.986 28.1075 Q819.985 28.1943 821.2 28.4113 L821.243 36.6144 Z" fill="#000000" fill-rule="evenodd" fill-opacity="1"></path><path clip-path="url(#clip180)" d="M828.795 58.5761 L828.795 29.1491 L836.781 29.1491 L836.781 58.2723 Q836.781 65.1733 839.472 68.6455 Q842.163 72.0743 847.545 72.0743 Q854.012 72.0743 857.745 67.951 Q861.521 63.8278 861.521 56.7098 L861.521 29.1491 L869.507 29.1491 L869.507 77.76 L861.521 77.76 L861.521 70.2948 Q858.613 74.7218 854.75 76.8919 Q850.931 79.0187 845.853 79.0187 Q837.476 79.0187 833.136 73.8104 Q828.795 68.6021 828.795 58.5761 M848.891 27.9773 L848.891 27.9773 Z" fill="#000000" fill-rule="evenodd" fill-opacity="1"></path><path clip-path="url(#clip180)" d="M927.536 51.4581 L927.536 55.3643 L890.818 55.3643 Q891.338 63.6108 895.766 67.951 Q900.236 72.2479 908.179 72.2479 Q912.779 72.2479 917.076 71.1194 Q921.416 69.9909 925.67 67.734 L925.67 75.2861 Q921.373 77.109 916.859 78.0638 Q912.345 79.0187 907.701 79.0187 Q896.069 79.0187 889.255 72.2479 Q882.484 65.4771 882.484 53.932 Q882.484 41.9963 888.908 35.0085 Q895.375 27.9773 906.312 27.9773 Q916.121 27.9773 921.807 34.3141 Q927.536 40.6074 927.536 51.4581 M919.55 49.1143 Q919.463 42.5605 915.861 38.6543 Q912.302 34.7481 906.399 34.7481 Q899.715 34.7481 895.679 38.5241 Q891.686 42.3001 891.078 49.1577 L919.55 49.1143 Z" fill="#000000" fill-rule="evenodd" fill-opacity="1"></path><path clip-path="url(#clip180)" d="M1008.09 15.0867 L1008.09 23.637 Q1003.1 21.2499 998.673 20.078 Q994.246 18.9061 990.123 18.9061 Q982.961 18.9061 979.055 21.6839 Q975.192 24.4617 975.192 29.5832 Q975.192 33.88 977.753 36.0936 Q980.357 38.2637 987.562 39.6092 L992.857 40.6942 Q1002.67 42.5605 1007.31 47.2914 Q1012 51.9789 1012 59.8782 Q1012 69.2965 1005.66 74.1576 Q999.367 79.0187 987.171 79.0187 Q982.571 79.0187 977.362 77.977 Q972.197 76.9354 966.642 74.8954 L966.642 65.8677 Q971.98 68.8625 977.102 70.3816 Q982.223 71.9007 987.171 71.9007 Q994.68 71.9007 998.76 68.9493 Q1002.84 65.9979 1002.84 60.5292 Q1002.84 55.7549 999.888 53.064 Q996.98 50.373 990.296 49.0275 L984.958 47.9859 Q975.149 46.0327 970.765 41.8661 Q966.381 37.6995 966.381 30.2776 Q966.381 21.6839 972.414 16.736 Q978.491 11.7881 989.124 11.7881 Q993.682 11.7881 998.413 12.6128 Q1003.14 13.4374 1008.09 15.0867 Z" fill="#000000" fill-rule="evenodd" fill-opacity="1"></path><path clip-path="url(#clip180)" d="M1042.38 77.76 L1017.64 12.96 L1026.8 12.96 L1047.33 67.517 L1067.9 12.96 L1077.01 12.96 L1052.32 77.76 L1042.38 77.76 Z" fill="#000000" fill-rule="evenodd" fill-opacity="1"></path><path clip-path="url(#clip180)" d="M1111.22 18.9061 Q1101.67 18.9061 1096.02 26.0242 Q1090.43 33.1422 1090.43 45.4251 Q1090.43 57.6646 1096.02 64.7826 Q1101.67 71.9007 1111.22 71.9007 Q1120.76 71.9007 1126.32 64.7826 Q1131.92 57.6646 1131.92 45.4251 Q1131.92 33.1422 1126.32 26.0242 Q1120.76 18.9061 1111.22 18.9061 M1111.22 11.7881 Q1124.84 11.7881 1133 20.9461 Q1141.16 30.0606 1141.16 45.4251 Q1141.16 60.7462 1133 69.9041 Q1124.84 79.0187 1111.22 79.0187 Q1097.54 79.0187 1089.34 69.9041 Q1081.18 60.7896 1081.18 45.4251 Q1081.18 30.0606 1089.34 20.9461 Q1097.54 11.7881 1111.22 11.7881 Z" fill="#000000" fill-rule="evenodd" fill-opacity="1"></path><path clip-path="url(#clip180)" d="M1155.01 66.7358 L1164.17 66.7358 L1164.17 77.76 L1155.01 77.76 L1155.01 66.7358 M1155.01 31.7967 L1164.17 31.7967 L1164.17 42.821 L1155.01 42.821 L1155.01 31.7967 Z" fill="#000000" fill-rule="evenodd" fill-opacity="1"></path><path clip-path="url(#clip180)" d="M1211.52 12.96 L1223.32 12.96 L1252.06 67.1698 L1252.06 12.96 L1260.56 12.96 L1260.56 77.76 L1248.76 77.76 L1220.03 23.5502 L1220.03 77.76 L1211.52 77.76 L1211.52 12.96 Z" fill="#000000" fill-rule="evenodd" fill-opacity="1"></path><path clip-path="url(#clip180)" d="M1319.24 51.4581 L1319.24 55.3643 L1282.53 55.3643 Q1283.05 63.6108 1287.47 67.951 Q1291.94 72.2479 1299.89 72.2479 Q1304.49 72.2479 1308.78 71.1194 Q1313.12 69.9909 1317.38 67.734 L1317.38 75.2861 Q1313.08 77.109 1308.57 78.0638 Q1304.05 79.0187 1299.41 79.0187 Q1287.78 79.0187 1280.96 72.2479 Q1274.19 65.4771 1274.19 53.932 Q1274.19 41.9963 1280.62 35.0085 Q1287.08 27.9773 1298.02 27.9773 Q1307.83 27.9773 1313.52 34.3141 Q1319.24 40.6074 1319.24 51.4581 M1311.26 49.1143 Q1311.17 42.5605 1307.57 38.6543 Q1304.01 34.7481 1298.11 34.7481 Q1291.42 34.7481 1287.39 38.5241 Q1283.39 42.3001 1282.79 49.1577 L1311.26 49.1143 Z" fill="#000000" fill-rule="evenodd" fill-opacity="1"></path><path clip-path="url(#clip180)" d="M1331.53 58.5761 L1331.53 29.1491 L1339.51 29.1491 L1339.51 58.2723 Q1339.51 65.1733 1342.2 68.6455 Q1344.9 72.0743 1350.28 72.0743 Q1356.74 72.0743 1360.48 67.951 Q1364.25 63.8278 1364.25 56.7098 L1364.25 29.1491 L1372.24 29.1491 L1372.24 77.76 L1364.25 77.76 L1364.25 70.2948 Q1361.34 74.7218 1357.48 76.8919 Q1353.66 79.0187 1348.58 79.0187 Q1340.21 79.0187 1335.87 73.8104 Q1331.53 68.6021 1331.53 58.5761 M1351.62 27.9773 L1351.62 27.9773 Z" fill="#000000" fill-rule="evenodd" fill-opacity="1"></path><path clip-path="url(#clip180)" d="M1396.59 15.3471 L1396.59 29.1491 L1413.04 29.1491 L1413.04 35.3557 L1396.59 35.3557 L1396.59 61.7445 Q1396.59 67.6906 1398.19 69.3833 Q1399.84 71.076 1404.83 71.076 L1413.04 71.076 L1413.04 77.76 L1404.83 77.76 Q1395.59 77.76 1392.07 74.3312 Q1388.56 70.859 1388.56 61.7445 L1388.56 35.3557 L1382.7 35.3557 L1382.7 29.1491 L1388.56 29.1491 L1388.56 15.3471 L1396.59 15.3471 Z" fill="#000000" fill-rule="evenodd" fill-opacity="1"></path><path clip-path="url(#clip180)" d="M1451.71 36.6144 Q1450.36 35.8331 1448.76 35.4859 Q1447.19 35.0953 1445.29 35.0953 Q1438.51 35.0953 1434.87 39.5224 Q1431.27 43.906 1431.27 52.1525 L1431.27 77.76 L1423.24 77.76 L1423.24 29.1491 L1431.27 29.1491 L1431.27 36.7012 Q1433.78 32.2741 1437.82 30.1474 Q1441.86 27.9773 1447.63 27.9773 Q1448.45 27.9773 1449.45 28.1075 Q1450.45 28.1943 1451.67 28.4113 L1451.71 36.6144 Z" fill="#000000" fill-rule="evenodd" fill-opacity="1"></path><path clip-path="url(#clip180)" d="M1482.18 53.3244 Q1472.5 53.3244 1468.77 55.5379 Q1465.03 57.7514 1465.03 63.0899 Q1465.03 67.3434 1467.81 69.8607 Q1470.63 72.3347 1475.45 72.3347 Q1482.09 72.3347 1486.08 67.6472 Q1490.12 62.9163 1490.12 55.1039 L1490.12 53.3244 L1482.18 53.3244 M1498.11 50.0258 L1498.11 77.76 L1490.12 77.76 L1490.12 70.3816 Q1487.39 74.8086 1483.31 76.9354 Q1479.23 79.0187 1473.32 79.0187 Q1465.86 79.0187 1461.43 74.852 Q1457.05 70.642 1457.05 63.6108 Q1457.05 55.4077 1462.52 51.241 Q1468.03 47.0744 1478.92 47.0744 L1490.12 47.0744 L1490.12 46.2932 Q1490.12 40.781 1486.47 37.7863 Q1482.87 34.7481 1476.32 34.7481 Q1472.15 34.7481 1468.2 35.7463 Q1464.25 36.7446 1460.61 38.7411 L1460.61 31.3627 Q1464.99 29.67 1469.11 28.8453 Q1473.24 27.9773 1477.14 27.9773 Q1487.69 27.9773 1492.9 33.446 Q1498.11 38.9147 1498.11 50.0258 Z" fill="#000000" fill-rule="evenodd" fill-opacity="1"></path><path clip-path="url(#clip180)" d="M1514.56 10.2256 L1522.54 10.2256 L1522.54 77.76 L1514.56 77.76 L1514.56 10.2256 Z" fill="#000000" fill-rule="evenodd" fill-opacity="1"></path><path clip-path="url(#clip180)" d="M1535.22 49.8522 L1558.61 49.8522 L1558.61 56.9702 L1535.22 56.9702 L1535.22 49.8522 Z" fill="#000000" fill-rule="evenodd" fill-opacity="1"></path><path clip-path="url(#clip180)" d="M1571.67 12.96 L1583.48 12.96 L1612.21 67.1698 L1612.21 12.96 L1620.72 12.96 L1620.72 77.76 L1608.91 77.76 L1580.18 23.5502 L1580.18 77.76 L1571.67 77.76 L1571.67 12.96 Z" fill="#000000" fill-rule="evenodd" fill-opacity="1"></path><path clip-path="url(#clip180)" d="M1679.4 51.4581 L1679.4 55.3643 L1642.68 55.3643 Q1643.2 63.6108 1647.63 67.951 Q1652.1 72.2479 1660.04 72.2479 Q1664.64 72.2479 1668.94 71.1194 Q1673.28 69.9909 1677.53 67.734 L1677.53 75.2861 Q1673.24 77.109 1668.72 78.0638 Q1664.21 79.0187 1659.56 79.0187 Q1647.93 79.0187 1641.12 72.2479 Q1634.35 65.4771 1634.35 53.932 Q1634.35 41.9963 1640.77 35.0085 Q1647.24 27.9773 1658.17 27.9773 Q1667.98 27.9773 1673.67 34.3141 Q1679.4 40.6074 1679.4 51.4581 M1671.41 49.1143 Q1671.33 42.5605 1667.72 38.6543 Q1664.16 34.7481 1658.26 34.7481 Q1651.58 34.7481 1647.54 38.5241 Q1643.55 42.3001 1642.94 49.1577 L1671.41 49.1143 Z" fill="#000000" fill-rule="evenodd" fill-opacity="1"></path><path clip-path="url(#clip180)" d="M1691.68 58.5761 L1691.68 29.1491 L1699.67 29.1491 L1699.67 58.2723 Q1699.67 65.1733 1702.36 68.6455 Q1705.05 72.0743 1710.43 72.0743 Q1716.9 72.0743 1720.63 67.951 Q1724.41 63.8278 1724.41 56.7098 L1724.41 29.1491 L1732.39 29.1491 L1732.39 77.76 L1724.41 77.76 L1724.41 70.2948 Q1721.5 74.7218 1717.64 76.8919 Q1713.82 79.0187 1708.74 79.0187 Q1700.36 79.0187 1696.02 73.8104 Q1691.68 68.6021 1691.68 58.5761 M1711.78 27.9773 L1711.78 27.9773 Z" fill="#000000" fill-rule="evenodd" fill-opacity="1"></path><path clip-path="url(#clip180)" d="M1756.74 15.3471 L1756.74 29.1491 L1773.19 29.1491 L1773.19 35.3557 L1756.74 35.3557 L1756.74 61.7445 Q1756.74 67.6906 1758.35 69.3833 Q1760 71.076 1764.99 71.076 L1773.19 71.076 L1773.19 77.76 L1764.99 77.76 Q1755.74 77.76 1752.23 74.3312 Q1748.71 70.859 1748.71 61.7445 L1748.71 35.3557 L1742.85 35.3557 L1742.85 29.1491 L1748.71 29.1491 L1748.71 15.3471 L1756.74 15.3471 Z" fill="#000000" fill-rule="evenodd" fill-opacity="1"></path><path clip-path="url(#clip180)" d="M1811.86 36.6144 Q1810.52 35.8331 1808.91 35.4859 Q1807.35 35.0953 1805.44 35.0953 Q1798.67 35.0953 1795.02 39.5224 Q1791.42 43.906 1791.42 52.1525 L1791.42 77.76 L1783.39 77.76 L1783.39 29.1491 L1791.42 29.1491 L1791.42 36.7012 Q1793.94 32.2741 1797.97 30.1474 Q1802.01 27.9773 1807.78 27.9773 Q1808.61 27.9773 1809.61 28.1075 Q1810.6 28.1943 1811.82 28.4113 L1811.86 36.6144 Z" fill="#000000" fill-rule="evenodd" fill-opacity="1"></path><path clip-path="url(#clip180)" d="M1842.33 53.3244 Q1832.65 53.3244 1828.92 55.5379 Q1825.19 57.7514 1825.19 63.0899 Q1825.19 67.3434 1827.97 69.8607 Q1830.79 72.3347 1835.6 72.3347 Q1842.24 72.3347 1846.24 67.6472 Q1850.27 62.9163 1850.27 55.1039 L1850.27 53.3244 L1842.33 53.3244 M1858.26 50.0258 L1858.26 77.76 L1850.27 77.76 L1850.27 70.3816 Q1847.54 74.8086 1843.46 76.9354 Q1839.38 79.0187 1833.48 79.0187 Q1826.01 79.0187 1821.59 74.852 Q1817.2 70.642 1817.2 63.6108 Q1817.2 55.4077 1822.67 51.241 Q1828.18 47.0744 1839.08 47.0744 L1850.27 47.0744 L1850.27 46.2932 Q1850.27 40.781 1846.63 37.7863 Q1843.03 34.7481 1836.47 34.7481 Q1832.31 34.7481 1828.36 35.7463 Q1824.41 36.7446 1820.76 38.7411 L1820.76 31.3627 Q1825.14 29.67 1829.27 28.8453 Q1833.39 27.9773 1837.3 27.9773 Q1847.84 27.9773 1853.05 33.446 Q1858.26 38.9147 1858.26 50.0258 Z" fill="#000000" fill-rule="evenodd" fill-opacity="1"></path><path clip-path="url(#clip180)" d="M1874.71 10.2256 L1882.7 10.2256 L1882.7 77.76 L1874.71 77.76 L1874.71 10.2256 Z" fill="#000000" fill-rule="evenodd" fill-opacity="1"></path><path clip-path="url(#clip182)" d="
M273.146 1076.66 L377.126 1144.93 L481.107 1246 L585.087 1292.11 L689.068 1304.36 L793.048 1302.62 L897.029 1296.48 L1001.01 1290.46 L1104.99 1284.3 L1208.97 1280.19 
  L1312.95 1276.46 L1416.93 1273.35 L1520.91 1271.85 L1624.89 1270.89 L1728.87 1269.61 L1832.85 1269.61 L1936.83 1266.43 L2040.81 1266.43 L2144.79 1266.43 L2248.78 1266.43 
  L2352.76 1266.43 L2352.76 1266.43 L2248.78 1266.43 L2144.79 1266.43 L2040.81 1266.43 L1936.83 1266.43 L1832.85 1263.13 L1728.87 1263.13 L1624.89 1261.72 L1520.91 1260.63 
  L1416.93 1258.87 L1312.95 1254.98 L1208.97 1249.82 L1104.99 1243.39 L1001.01 1231.65 L897.029 1216.17 L793.048 1189.32 L689.068 1150.35 L585.087 1080.84 L481.107 984.35 
  L377.126 907.717 L273.146 1076.66  Z
  " fill="#009af9" fill-rule="evenodd" fill-opacity="0.1"></path>
<polyline clip-path="url(#clip182)" style="stroke:#009af9; stroke-linecap:butt; stroke-linejoin:round; stroke-width:4; stroke-opacity:1; fill:none" points="
  273.146,1076.66 377.126,1026.32 481.107,1115.18 585.087,1186.47 689.068,1227.36 793.048,1245.97 897.029,1256.33 1001.01,1261.06 1104.99,1263.84 1208.97,1265.01 
  1312.95,1265.72 1416.93,1266.11 1520.91,1266.24 1624.89,1266.3 1728.87,1266.37 1832.85,1266.37 1936.83,1266.43 2040.81,1266.43 2144.79,1266.43 2248.78,1266.43 
  2352.76,1266.43 
  "></polyline>
<path clip-path="url(#clip182)" d="
M273.146 1076.66 L377.126 1266.43 L481.107 1266.43 L585.087 1266.43 L689.068 1266.43 L793.048 1266.43 L897.029 1266.43 L1001.01 1266.43 L1104.99 1266.43 L1208.97 1266.43 
  L1312.95 1266.43 L1416.93 1266.43 L1520.91 1266.43 L1624.89 1266.43 L1728.87 1266.43 L1832.85 1266.43 L1936.83 1266.43 L2040.81 1266.43 L2144.79 1266.43 L2248.78 1266.43 
  L2352.76 1266.43 L2352.76 1266.43 L2248.78 1266.43 L2144.79 1266.43 L2040.81 1266.43 L1936.83 1266.43 L1832.85 1266.43 L1728.87 1266.43 L1624.89 1266.43 L1520.91 1266.43 
  L1416.93 1266.43 L1312.95 1266.43 L1208.97 1266.43 L1104.99 1266.43 L1001.01 1266.43 L897.029 1266.43 L793.048 1266.43 L689.068 1266.43 L585.087 1266.43 L481.107 1266.43 
  L377.126 1266.43 L273.146 1076.66  Z
  " fill="#e26f46" fill-rule="evenodd" fill-opacity="0.1"></path>
<polyline clip-path="url(#clip182)" style="stroke:#e26f46; stroke-linecap:butt; stroke-linejoin:round; stroke-width:4; stroke-opacity:1; fill:none" points="
  273.146,1076.66 377.126,1266.43 481.107,1266.43 585.087,1266.43 689.068,1266.43 793.048,1266.43 897.029,1266.43 1001.01,1266.43 1104.99,1266.43 1208.97,1266.43 
  1312.95,1266.43 1416.93,1266.43 1520.91,1266.43 1624.89,1266.43 1728.87,1266.43 1832.85,1266.43 1936.83,1266.43 2040.81,1266.43 2144.79,1266.43 2248.78,1266.43 
  2352.76,1266.43 
  "></polyline>
<path clip-path="url(#clip182)" d="
M273.146 1076.66 L377.126 1035 L481.107 1236.28 L585.087 1304.9 L689.068 1321.79 L793.048 1319.93 L897.029 1310.7 L1001.01 1300.08 L1104.99 1295.16 L1208.97 1288.85 
  L1312.95 1284.37 L1416.93 1280.48 L1520.91 1275.54 L1624.89 1271.08 L1728.87 1271.08 L1832.85 1271.08 L1936.83 1271.08 L2040.81 1271.08 L2144.79 1271.08 L2248.78 1271.08 
  L2352.76 1266.43 L2352.76 1266.43 L2248.78 1261.59 L2144.79 1261.59 L2040.81 1261.59 L1936.83 1261.59 L1832.85 1261.59 L1728.87 1261.59 L1624.89 1261.59 L1520.91 1256.57 
  L1416.93 1250.49 L1312.95 1245.28 L1208.97 1238.71 L1104.99 1228.22 L1001.01 1218.75 L897.029 1192 L793.048 1149.93 L689.068 1088.86 L585.087 991.508 L481.107 826.71 
  L377.126 560.577 L273.146 1076.66  Z
  " fill="#3da44d" fill-rule="evenodd" fill-opacity="0.1"></path>
<polyline clip-path="url(#clip182)" style="stroke:#3da44d; stroke-linecap:butt; stroke-linejoin:round; stroke-width:4; stroke-opacity:1; fill:none" points="
  273.146,1076.66 377.126,797.788 481.107,1031.49 585.087,1148.21 689.068,1205.33 793.048,1234.93 897.029,1251.35 1001.01,1259.41 1104.99,1261.69 1208.97,1263.78 
  1312.95,1264.82 1416.93,1265.49 1520.91,1266.05 1624.89,1266.34 1728.87,1266.34 1832.85,1266.34 1936.83,1266.34 2040.81,1266.34 2144.79,1266.34 2248.78,1266.34 
  2352.76,1266.43 
  "></polyline>
<path clip-path="url(#clip182)" d="
M273.146 1076.66 L377.126 1266.43 L481.107 1266.43 L585.087 1266.43 L689.068 1266.43 L793.048 1266.43 L897.029 1266.43 L1001.01 1266.43 L1104.99 1266.43 L1208.97 1266.43 
  L1312.95 1266.43 L1416.93 1266.43 L1520.91 1266.43 L1624.89 1266.43 L1728.87 1266.43 L1832.85 1266.43 L1936.83 1266.43 L2040.81 1266.43 L2144.79 1266.43 L2248.78 1266.43 
  L2352.76 1266.43 L2352.76 1266.43 L2248.78 1266.43 L2144.79 1266.43 L2040.81 1266.43 L1936.83 1266.43 L1832.85 1266.43 L1728.87 1266.43 L1624.89 1266.43 L1520.91 1266.43 
  L1416.93 1266.43 L1312.95 1266.43 L1208.97 1266.43 L1104.99 1266.43 L1001.01 1266.43 L897.029 1266.43 L793.048 1266.43 L689.068 1266.43 L585.087 1266.43 L481.107 1266.43 
  L377.126 1266.43 L273.146 1076.66  Z
  " fill="#c271d2" fill-rule="evenodd" fill-opacity="0.1"></path>
<polyline clip-path="url(#clip182)" style="stroke:#c271d2; stroke-linecap:butt; stroke-linejoin:round; stroke-width:4; stroke-opacity:1; fill:none" points="
  273.146,1076.66 377.126,1266.43 481.107,1266.43 585.087,1266.43 689.068,1266.43 793.048,1266.43 897.029,1266.43 1001.01,1266.43 1104.99,1266.43 1208.97,1266.43 
  1312.95,1266.43 1416.93,1266.43 1520.91,1266.43 1624.89,1266.43 1728.87,1266.43 1832.85,1266.43 1936.83,1266.43 2040.81,1266.43 2144.79,1266.43 2248.78,1266.43 
  2352.76,1266.43 
  "></polyline>
<path clip-path="url(#clip182)" d="
M273.146 1076.66 L377.126 1197 L481.107 1256.49 L585.087 1278.48 L689.068 1284.07 L793.048 1283.23 L897.029 1280.38 L1001.01 1277.58 L1104.99 1274.72 L1208.97 1272.82 
  L1312.95 1271.09 L1416.93 1269.65 L1520.91 1268.95 L1624.89 1268.5 L1728.87 1267.91 L1832.85 1267.91 L1936.83 1266.43 L2040.81 1266.43 L2144.79 1266.43 L2248.78 1266.43 
  L2352.76 1266.43 L2352.76 1266.43 L2248.78 1266.43 L2144.79 1266.43 L2040.81 1266.43 L1936.83 1266.43 L1832.85 1264.9 L1728.87 1264.9 L1624.89 1264.25 L1520.91 1263.74 
  L1416.93 1262.92 L1312.95 1261.12 L1208.97 1258.73 L1104.99 1255.74 L1001.01 1250.29 L897.029 1243.11 L793.048 1230.63 L689.068 1212.44 L585.087 1179.39 L481.107 1129.08 
  L377.126 1061.45 L273.146 1076.66  Z
  " fill="#ac8d18" fill-rule="evenodd" fill-opacity="0.1"></path>
<polyline clip-path="url(#clip182)" style="stroke:#ac8d18; stroke-linecap:butt; stroke-linejoin:round; stroke-width:4; stroke-opacity:1; fill:none" points="
  273.146,1076.66 377.126,1129.23 481.107,1192.78 585.087,1228.93 689.068,1248.26 793.048,1256.93 897.029,1261.74 1001.01,1263.94 1104.99,1265.23 1208.97,1265.77 
  1312.95,1266.1 1416.93,1266.28 1520.91,1266.34 1624.89,1266.37 1728.87,1266.4 1832.85,1266.4 1936.83,1266.43 2040.81,1266.43 2144.79,1266.43 2248.78,1266.43 
  2352.76,1266.43 
  "></polyline>
<path clip-path="url(#clip180)" d="
M1845.41 1002.6 L2283.44 1002.6 L2283.44 497.16 L1845.41 497.16  Z
  " fill="#ffffff" fill-rule="evenodd" fill-opacity="1"></path>
<polyline clip-path="url(#clip180)" style="stroke:#000000; stroke-linecap:butt; stroke-linejoin:round; stroke-width:4; stroke-opacity:1; fill:none" points="
  1845.41,1002.6 2283.44,1002.6 2283.44,497.16 1845.41,497.16 1845.41,1002.6 
  "></polyline>
<polyline clip-path="url(#clip180)" style="stroke:#009af9; stroke-linecap:butt; stroke-linejoin:round; stroke-width:6.5; stroke-opacity:1; fill:none" points="
  1868.51,581.4 2007.15,581.4 
  "></polyline>
<path clip-path="url(#clip180)" d="M2031.35 603.085 L2043.77 603.085 L2043.77 560.241 L2030.26 562.95 L2030.26 556.028 L2043.69 553.32 L2051.29 553.32 L2051.29 603.085 L2063.7 603.085 L2063.7 609.48 L2031.35 609.48 L2031.35 603.085 Z" fill="#000000" fill-rule="evenodd" fill-opacity="1"></path><path clip-path="url(#clip180)" d="M2095.3 582.811 Q2089.88 582.811 2086.76 585.707 Q2083.68 588.603 2083.68 593.681 Q2083.68 598.76 2086.76 601.656 Q2089.88 604.552 2095.3 604.552 Q2100.72 604.552 2103.84 601.656 Q2106.96 598.722 2106.96 593.681 Q2106.96 588.603 2103.84 585.707 Q2100.75 582.811 2095.3 582.811 M2087.7 579.576 Q2082.81 578.372 2080.06 575.024 Q2077.36 571.676 2077.36 566.862 Q2077.36 560.128 2082.13 556.216 Q2086.95 552.304 2095.3 552.304 Q2103.69 552.304 2108.46 556.216 Q2113.24 560.128 2113.24 566.862 Q2113.24 571.676 2110.5 575.024 Q2107.79 578.372 2102.93 579.576 Q2108.43 580.855 2111.47 584.579 Q2114.56 588.302 2114.56 593.681 Q2114.56 601.844 2109.55 606.207 Q2104.59 610.571 2095.3 610.571 Q2086.01 610.571 2081 606.207 Q2076.04 601.844 2076.04 593.681 Q2076.04 588.302 2079.12 584.579 Q2082.21 580.855 2087.7 579.576 M2084.92 567.576 Q2084.92 571.94 2087.63 574.385 Q2090.37 576.83 2095.3 576.83 Q2100.19 576.83 2102.93 574.385 Q2105.72 571.94 2105.72 567.576 Q2105.72 563.213 2102.93 560.768 Q2100.19 558.323 2095.3 558.323 Q2090.37 558.323 2087.63 560.768 Q2084.92 563.213 2084.92 567.576 Z" fill="#000000" fill-rule="evenodd" fill-opacity="1"></path><path clip-path="url(#clip180)" d="M2144.31 558.323 Q2138.44 558.323 2135.47 564.116 Q2132.54 569.871 2132.54 581.456 Q2132.54 593.004 2135.47 598.797 Q2138.44 604.552 2144.31 604.552 Q2150.22 604.552 2153.15 598.797 Q2156.12 593.004 2156.12 581.456 Q2156.12 569.871 2153.15 564.116 Q2150.22 558.323 2144.31 558.323 M2144.31 552.304 Q2153.75 552.304 2158.72 559.79 Q2163.72 567.238 2163.72 581.456 Q2163.72 595.637 2158.72 603.123 Q2153.75 610.571 2144.31 610.571 Q2134.87 610.571 2129.87 603.123 Q2124.9 595.637 2124.9 581.456 Q2124.9 567.238 2129.87 559.79 Q2134.87 552.304 2144.31 552.304 Z" fill="#000000" fill-rule="evenodd" fill-opacity="1"></path><path clip-path="url(#clip180)" d="M2177.07 599.926 L2185.01 599.926 L2185.01 609.48 L2177.07 609.48 L2177.07 599.926 Z" fill="#000000" fill-rule="evenodd" fill-opacity="1"></path><path clip-path="url(#clip180)" d="M2217.81 558.323 Q2211.94 558.323 2208.97 564.116 Q2206.04 569.871 2206.04 581.456 Q2206.04 593.004 2208.97 598.797 Q2211.94 604.552 2217.81 604.552 Q2223.72 604.552 2226.65 598.797 Q2229.62 593.004 2229.62 581.456 Q2229.62 569.871 2226.65 564.116 Q2223.72 558.323 2217.81 558.323 M2217.81 552.304 Q2227.25 552.304 2232.22 559.79 Q2237.22 567.238 2237.22 581.456 Q2237.22 595.637 2232.22 603.123 Q2227.25 610.571 2217.81 610.571 Q2208.37 610.571 2203.37 603.123 Q2198.4 595.637 2198.4 581.456 Q2198.4 567.238 2203.37 559.79 Q2208.37 552.304 2217.81 552.304 Z" fill="#000000" fill-rule="evenodd" fill-opacity="1"></path><polyline clip-path="url(#clip180)" style="stroke:#e26f46; stroke-linecap:butt; stroke-linejoin:round; stroke-width:6.5; stroke-opacity:1; fill:none" points="
  1868.51,665.64 2007.15,665.64 
  "></polyline>
<path clip-path="url(#clip180)" d="M2031.35 687.325 L2043.77 687.325 L2043.77 644.481 L2030.26 647.19 L2030.26 640.268 L2043.69 637.56 L2051.29 637.56 L2051.29 687.325 L2063.7 687.325 L2063.7 693.72 L2031.35 693.72 L2031.35 687.325 Z" fill="#000000" fill-rule="evenodd" fill-opacity="1"></path><path clip-path="url(#clip180)" d="M2079.12 637.56 L2108.95 637.56 L2108.95 643.955 L2086.08 643.955 L2086.08 657.722 Q2087.74 657.158 2089.39 656.894 Q2091.05 656.593 2092.7 656.593 Q2102.11 656.593 2107.6 661.747 Q2113.09 666.9 2113.09 675.702 Q2113.09 684.768 2107.45 689.808 Q2101.81 694.811 2091.54 694.811 Q2088 694.811 2084.31 694.209 Q2080.67 693.607 2076.75 692.403 L2076.75 684.768 Q2080.14 686.611 2083.75 687.513 Q2087.36 688.416 2091.39 688.416 Q2097.89 688.416 2101.69 684.993 Q2105.49 681.57 2105.49 675.702 Q2105.49 669.834 2101.69 666.411 Q2097.89 662.988 2091.39 662.988 Q2088.34 662.988 2085.29 663.665 Q2082.28 664.342 2079.12 665.772 L2079.12 637.56 Z" fill="#000000" fill-rule="evenodd" fill-opacity="1"></path><path clip-path="url(#clip180)" d="M2126.14 637.56 L2162.25 637.56 L2162.25 640.795 L2141.87 693.72 L2133.93 693.72 L2153.11 643.955 L2126.14 643.955 L2126.14 637.56 Z" fill="#000000" fill-rule="evenodd" fill-opacity="1"></path><path clip-path="url(#clip180)" d="M2177.07 684.166 L2185.01 684.166 L2185.01 693.72 L2177.07 693.72 L2177.07 684.166 Z" fill="#000000" fill-rule="evenodd" fill-opacity="1"></path><path clip-path="url(#clip180)" d="M2201.64 637.56 L2231.47 637.56 L2231.47 643.955 L2208.6 643.955 L2208.6 657.722 Q2210.25 657.158 2211.91 656.894 Q2213.56 656.593 2215.22 656.593 Q2224.62 656.593 2230.11 661.747 Q2235.6 666.9 2235.6 675.702 Q2235.6 684.768 2229.96 689.808 Q2224.32 694.811 2214.05 694.811 Q2210.51 694.811 2206.83 694.209 Q2203.18 693.607 2199.27 692.403 L2199.27 684.768 Q2202.65 686.611 2206.26 687.513 Q2209.88 688.416 2213.9 688.416 Q2220.41 688.416 2224.21 684.993 Q2228.01 681.57 2228.01 675.702 Q2228.01 669.834 2224.21 666.411 Q2220.41 662.988 2213.9 662.988 Q2210.85 662.988 2207.81 663.665 Q2204.8 664.342 2201.64 665.772 L2201.64 637.56 Z" fill="#000000" fill-rule="evenodd" fill-opacity="1"></path><polyline clip-path="url(#clip180)" style="stroke:#3da44d; stroke-linecap:butt; stroke-linejoin:round; stroke-width:6.5; stroke-opacity:1; fill:none" points="
  1868.51,749.88 2007.15,749.88 
  "></polyline>
<path clip-path="url(#clip180)" d="M2031.35 771.565 L2043.77 771.565 L2043.77 728.721 L2030.26 731.43 L2030.26 724.508 L2043.69 721.8 L2051.29 721.8 L2051.29 771.565 L2063.7 771.565 L2063.7 777.96 L2031.35 777.96 L2031.35 771.565 Z" fill="#000000" fill-rule="evenodd" fill-opacity="1"></path><path clip-path="url(#clip180)" d="M2102.07 747.679 Q2107.52 748.846 2110.57 752.532 Q2113.65 756.218 2113.65 761.635 Q2113.65 769.948 2107.94 774.499 Q2102.22 779.051 2091.69 779.051 Q2088.15 779.051 2084.39 778.336 Q2080.67 777.659 2076.68 776.267 L2076.68 768.932 Q2079.84 770.775 2083.6 771.716 Q2087.36 772.656 2091.46 772.656 Q2098.61 772.656 2102.33 769.835 Q2106.09 767.014 2106.09 761.635 Q2106.09 756.67 2102.6 753.886 Q2099.14 751.065 2092.93 751.065 L2086.38 751.065 L2086.38 744.821 L2093.23 744.821 Q2098.83 744.821 2101.81 742.601 Q2104.78 740.344 2104.78 736.132 Q2104.78 731.806 2101.69 729.511 Q2098.65 727.179 2092.93 727.179 Q2089.81 727.179 2086.23 727.856 Q2082.66 728.533 2078.37 729.963 L2078.37 723.192 Q2082.7 721.988 2086.46 721.386 Q2090.26 720.784 2093.61 720.784 Q2102.26 720.784 2107.3 724.734 Q2112.34 728.646 2112.34 735.342 Q2112.34 740.006 2109.67 743.241 Q2107 746.438 2102.07 747.679 Z" fill="#000000" fill-rule="evenodd" fill-opacity="1"></path><path clip-path="url(#clip180)" d="M2128.14 721.8 L2157.97 721.8 L2157.97 728.195 L2135.1 728.195 L2135.1 741.962 Q2136.75 741.398 2138.41 741.134 Q2140.06 740.833 2141.72 740.833 Q2151.12 740.833 2156.61 745.987 Q2162.1 751.14 2162.1 759.942 Q2162.1 769.008 2156.46 774.048 Q2150.82 779.051 2140.55 779.051 Q2137.01 779.051 2133.33 778.449 Q2129.68 777.847 2125.77 776.643 L2125.77 769.008 Q2129.15 770.851 2132.76 771.753 Q2136.37 772.656 2140.4 772.656 Q2146.91 772.656 2150.71 769.233 Q2154.51 765.81 2154.51 759.942 Q2154.51 754.074 2150.71 750.651 Q2146.91 747.228 2140.4 747.228 Q2137.35 747.228 2134.31 747.905 Q2131.3 748.582 2128.14 750.012 L2128.14 721.8 Z" fill="#000000" fill-rule="evenodd" fill-opacity="1"></path><path clip-path="url(#clip180)" d="M2177.07 768.406 L2185.01 768.406 L2185.01 777.96 L2177.07 777.96 L2177.07 768.406 Z" fill="#000000" fill-rule="evenodd" fill-opacity="1"></path><path clip-path="url(#clip180)" d="M2217.81 726.803 Q2211.94 726.803 2208.97 732.596 Q2206.04 738.351 2206.04 749.936 Q2206.04 761.484 2208.97 767.277 Q2211.94 773.032 2217.81 773.032 Q2223.72 773.032 2226.65 767.277 Q2229.62 761.484 2229.62 749.936 Q2229.62 738.351 2226.65 732.596 Q2223.72 726.803 2217.81 726.803 M2217.81 720.784 Q2227.25 720.784 2232.22 728.27 Q2237.22 735.718 2237.22 749.936 Q2237.22 764.117 2232.22 771.603 Q2227.25 779.051 2217.81 779.051 Q2208.37 779.051 2203.37 771.603 Q2198.4 764.117 2198.4 749.936 Q2198.4 735.718 2203.37 728.27 Q2208.37 720.784 2217.81 720.784 Z" fill="#000000" fill-rule="evenodd" fill-opacity="1"></path><polyline clip-path="url(#clip180)" style="stroke:#c271d2; stroke-linecap:butt; stroke-linejoin:round; stroke-width:6.5; stroke-opacity:1; fill:none" points="
  1868.51,834.12 2007.15,834.12 
  "></polyline>
<path clip-path="url(#clip180)" d="M2033.87 861.034 L2033.87 854.113 Q2036.73 855.467 2039.67 856.182 Q2042.6 856.896 2045.42 856.896 Q2052.94 856.896 2056.89 851.856 Q2060.88 846.778 2061.44 836.471 Q2059.26 839.706 2055.92 841.436 Q2052.57 843.167 2048.5 843.167 Q2040.08 843.167 2035.15 838.088 Q2030.26 832.973 2030.26 824.133 Q2030.26 815.482 2035.38 810.253 Q2040.49 805.024 2048.99 805.024 Q2058.74 805.024 2063.85 812.51 Q2069.01 819.958 2069.01 834.176 Q2069.01 847.455 2062.69 855.392 Q2056.4 863.291 2045.76 863.291 Q2042.9 863.291 2039.97 862.727 Q2037.03 862.162 2033.87 861.034 M2048.99 837.223 Q2054.11 837.223 2057.08 833.725 Q2060.09 830.227 2060.09 824.133 Q2060.09 818.077 2057.08 814.579 Q2054.11 811.043 2048.99 811.043 Q2043.88 811.043 2040.87 814.579 Q2037.9 818.077 2037.9 824.133 Q2037.9 830.227 2040.87 833.725 Q2043.88 837.223 2048.99 837.223 Z" fill="#000000" fill-rule="evenodd" fill-opacity="1"></path><path clip-path="url(#clip180)" d="M2098.91 811.043 Q2093.04 811.043 2090.07 816.836 Q2087.14 822.591 2087.14 834.176 Q2087.14 845.724 2090.07 851.517 Q2093.04 857.272 2098.91 857.272 Q2104.82 857.272 2107.75 851.517 Q2110.72 845.724 2110.72 834.176 Q2110.72 822.591 2107.75 816.836 Q2104.82 811.043 2098.91 811.043 M2098.91 805.024 Q2108.35 805.024 2113.32 812.51 Q2118.32 819.958 2118.32 834.176 Q2118.32 848.357 2113.32 855.843 Q2108.35 863.291 2098.91 863.291 Q2089.47 863.291 2084.47 855.843 Q2079.5 848.357 2079.5 834.176 Q2079.5 819.958 2084.47 812.51 Q2089.47 805.024 2098.91 805.024 Z" fill="#000000" fill-rule="evenodd" fill-opacity="1"></path><path clip-path="url(#clip180)" d="M2131.67 852.646 L2139.61 852.646 L2139.61 862.2 L2131.67 862.2 L2131.67 852.646 Z" fill="#000000" fill-rule="evenodd" fill-opacity="1"></path><path clip-path="url(#clip180)" d="M2172.41 811.043 Q2166.54 811.043 2163.57 816.836 Q2160.64 822.591 2160.64 834.176 Q2160.64 845.724 2163.57 851.517 Q2166.54 857.272 2172.41 857.272 Q2178.32 857.272 2181.25 851.517 Q2184.22 845.724 2184.22 834.176 Q2184.22 822.591 2181.25 816.836 Q2178.32 811.043 2172.41 811.043 M2172.41 805.024 Q2181.85 805.024 2186.82 812.51 Q2191.82 819.958 2191.82 834.176 Q2191.82 848.357 2186.82 855.843 Q2181.85 863.291 2172.41 863.291 Q2162.97 863.291 2157.97 855.843 Q2153 848.357 2153 834.176 Q2153 819.958 2157.97 812.51 Q2162.97 805.024 2172.41 805.024 Z" fill="#000000" fill-rule="evenodd" fill-opacity="1"></path><polyline clip-path="url(#clip180)" style="stroke:#ac8d18; stroke-linecap:butt; stroke-linejoin:round; stroke-width:6.5; stroke-opacity:1; fill:none" points="
  1868.51,918.36 2007.15,918.36 
  "></polyline>
<path clip-path="url(#clip180)" d="M2049.67 895.283 Q2043.8 895.283 2040.83 901.076 Q2037.9 906.831 2037.9 918.416 Q2037.9 929.964 2040.83 935.757 Q2043.8 941.512 2049.67 941.512 Q2055.58 941.512 2058.51 935.757 Q2061.48 929.964 2061.48 918.416 Q2061.48 906.831 2058.51 901.076 Q2055.58 895.283 2049.67 895.283 M2049.67 889.264 Q2059.11 889.264 2064.08 896.75 Q2069.08 904.198 2069.08 918.416 Q2069.08 932.597 2064.08 940.083 Q2059.11 947.531 2049.67 947.531 Q2040.23 947.531 2035.23 940.083 Q2030.26 932.597 2030.26 918.416 Q2030.26 904.198 2035.23 896.75 Q2040.23 889.264 2049.67 889.264 Z" fill="#000000" fill-rule="evenodd" fill-opacity="1"></path><path clip-path="url(#clip180)" d="M2082.43 936.886 L2090.37 936.886 L2090.37 946.44 L2082.43 946.44 L2082.43 936.886 Z" fill="#000000" fill-rule="evenodd" fill-opacity="1"></path><path clip-path="url(#clip180)" d="M2123.17 895.283 Q2117.3 895.283 2114.33 901.076 Q2111.4 906.831 2111.4 918.416 Q2111.4 929.964 2114.33 935.757 Q2117.3 941.512 2123.17 941.512 Q2129.08 941.512 2132.01 935.757 Q2134.98 929.964 2134.98 918.416 Q2134.98 906.831 2132.01 901.076 Q2129.08 895.283 2123.17 895.283 M2123.17 889.264 Q2132.61 889.264 2137.58 896.75 Q2142.58 904.198 2142.58 918.416 Q2142.58 932.597 2137.58 940.083 Q2132.61 947.531 2123.17 947.531 Q2113.73 947.531 2108.73 940.083 Q2103.76 932.597 2103.76 918.416 Q2103.76 904.198 2108.73 896.75 Q2113.73 889.264 2123.17 889.264 Z" fill="#000000" fill-rule="evenodd" fill-opacity="1"></path></svg>