<svg xmlns="http://www.w3.org/2000/svg" xmlns:xlink="http://www.w3.org/1999/xlink" width="600" height="400" viewBox="0 0 2400 1600">
<defs>
  <clipPath id="clip700">
    <rect x="0" y="0" width="2400" height="1600"></rect>
  </clipPath>
</defs>
<path clip-path="url(#clip700)" d="
M0 1600 L2400 1600 L2400 0 L0 0  Z
  " fill="#ffffff" fill-rule="evenodd" fill-opacity="1"></path>
<defs>
  <clipPath id="clip701">
    <rect x="480" y="0" width="1681" height="1600"></rect>
  </clipPath>
</defs>
<path clip-path="url(#clip700)" d="
M186.274 1486.45 L2352.76 1486.45 L2352.76 123.472 L186.274 123.472  Z
  " fill="#ffffff" fill-rule="evenodd" fill-opacity="1"></path>
<defs>
  <clipPath id="clip702">
    <rect x="186" y="123" width="2167" height="1364"></rect>
  </clipPath>
</defs>
<polyline clip-path="url(#clip702)" style="stroke:#000000; stroke-linecap:butt; stroke-linejoin:round; stroke-width:2; stroke-opacity:0.1; fill:none" points="
  186.274,1486.45 186.274,123.472 
  "></polyline>
<polyline clip-path="url(#clip702)" style="stroke:#000000; stroke-linecap:butt; stroke-linejoin:round; stroke-width:2; stroke-opacity:0.1; fill:none" points="
  547.354,1486.45 547.354,123.472 
  "></polyline>
<polyline clip-path="url(#clip702)" style="stroke:#000000; stroke-linecap:butt; stroke-linejoin:round; stroke-width:2; stroke-opacity:0.1; fill:none" points="
  908.435,1486.45 908.435,123.472 
  "></polyline>
<polyline clip-path="url(#clip702)" style="stroke:#000000; stroke-linecap:butt; stroke-linejoin:round; stroke-width:2; stroke-opacity:0.1; fill:none" points="
  1269.51,1486.45 1269.51,123.472 
  "></polyline>
<polyline clip-path="url(#clip702)" style="stroke:#000000; stroke-linecap:butt; stroke-linejoin:round; stroke-width:2; stroke-opacity:0.1; fill:none" points="
  1630.6,1486.45 1630.6,123.472 
  "></polyline>
<polyline clip-path="url(#clip702)" style="stroke:#000000; stroke-linecap:butt; stroke-linejoin:round; stroke-width:2; stroke-opacity:0.1; fill:none" points="
  1991.68,1486.45 1991.68,123.472 
  "></polyline>
<polyline clip-path="url(#clip702)" style="stroke:#000000; stroke-linecap:butt; stroke-linejoin:round; stroke-width:2; stroke-opacity:0.1; fill:none" points="
  2352.76,1486.45 2352.76,123.472 
  "></polyline>
<polyline clip-path="url(#clip700)" style="stroke:#000000; stroke-linecap:butt; stroke-linejoin:round; stroke-width:4; stroke-opacity:1; fill:none" points="
  186.274,1486.45 2352.76,1486.45 
  "></polyline>
<polyline clip-path="url(#clip700)" style="stroke:#000000; stroke-linecap:butt; stroke-linejoin:round; stroke-width:4; stroke-opacity:1; fill:none" points="
  186.274,1486.45 186.274,1467.55 
  "></polyline>
<polyline clip-path="url(#clip700)" style="stroke:#000000; stroke-linecap:butt; stroke-linejoin:round; stroke-width:4; stroke-opacity:1; fill:none" points="
  547.354,1486.45 547.354,1467.55 
  "></polyline>
<polyline clip-path="url(#clip700)" style="stroke:#000000; stroke-linecap:butt; stroke-linejoin:round; stroke-width:4; stroke-opacity:1; fill:none" points="
  908.435,1486.45 908.435,1467.55 
  "></polyline>
<polyline clip-path="url(#clip700)" style="stroke:#000000; stroke-linecap:butt; stroke-linejoin:round; stroke-width:4; stroke-opacity:1; fill:none" points="
  1269.51,1486.45 1269.51,1467.55 
  "></polyline>
<polyline clip-path="url(#clip700)" style="stroke:#000000; stroke-linecap:butt; stroke-linejoin:round; stroke-width:4; stroke-opacity:1; fill:none" points="
  1630.6,1486.45 1630.6,1467.55 
  "></polyline>
<polyline clip-path="url(#clip700)" style="stroke:#000000; stroke-linecap:butt; stroke-linejoin:round; stroke-width:4; stroke-opacity:1; fill:none" points="
  1991.68,1486.45 1991.68,1467.55 
  "></polyline>
<polyline clip-path="url(#clip700)" style="stroke:#000000; stroke-linecap:butt; stroke-linejoin:round; stroke-width:4; stroke-opacity:1; fill:none" points="
  2352.76,1486.45 2352.76,1467.55 
  "></polyline>
<path clip-path="url(#clip700)" d="M186.274 1517.37 Q182.663 1517.37 180.834 1520.93 Q179.029 1524.47 179.029 1531.6 Q179.029 1538.71 180.834 1542.27 Q182.663 1545.82 186.274 1545.82 Q189.908 1545.82 191.714 1542.27 Q193.542 1538.71 193.542 1531.6 Q193.542 1524.47 191.714 1520.93 Q189.908 1517.37 186.274 1517.37 M186.274 1513.66 Q192.084 1513.66 195.14 1518.27 Q198.218 1522.85 198.218 1531.6 Q198.218 1540.33 195.14 1544.94 Q192.084 1549.52 186.274 1549.52 Q180.464 1549.52 177.385 1544.94 Q174.33 1540.33 174.33 1531.6 Q174.33 1522.85 177.385 1518.27 Q180.464 1513.66 186.274 1513.66 Z" fill="#000000" fill-rule="evenodd" fill-opacity="1"></path><path clip-path="url(#clip700)" d="M542.007 1544.91 L558.326 1544.91 L558.326 1548.85 L536.382 1548.85 L536.382 1544.91 Q539.044 1542.16 543.627 1537.53 Q548.234 1532.88 549.414 1531.53 Q551.66 1529.01 552.539 1527.27 Q553.442 1525.51 553.442 1523.82 Q553.442 1521.07 551.498 1519.33 Q549.577 1517.6 546.475 1517.6 Q544.276 1517.6 541.822 1518.36 Q539.391 1519.13 536.614 1520.68 L536.614 1515.95 Q539.438 1514.82 541.891 1514.24 Q544.345 1513.66 546.382 1513.66 Q551.752 1513.66 554.947 1516.35 Q558.141 1519.03 558.141 1523.52 Q558.141 1525.65 557.331 1527.57 Q556.544 1529.47 554.438 1532.07 Q553.859 1532.74 550.757 1535.95 Q547.655 1539.15 542.007 1544.91 Z" fill="#000000" fill-rule="evenodd" fill-opacity="1"></path><path clip-path="url(#clip700)" d="M911.444 1518.36 L899.638 1536.81 L911.444 1536.81 L911.444 1518.36 M910.217 1514.29 L916.097 1514.29 L916.097 1536.81 L921.027 1536.81 L921.027 1540.7 L916.097 1540.7 L916.097 1548.85 L911.444 1548.85 L911.444 1540.7 L895.842 1540.7 L895.842 1536.19 L910.217 1514.29 Z" fill="#000000" fill-rule="evenodd" fill-opacity="1"></path><path clip-path="url(#clip700)" d="M1269.92 1529.7 Q1266.77 1529.7 1264.92 1531.86 Q1263.09 1534.01 1263.09 1537.76 Q1263.09 1541.49 1264.92 1543.66 Q1266.77 1545.82 1269.92 1545.82 Q1273.07 1545.82 1274.9 1543.66 Q1276.75 1541.49 1276.75 1537.76 Q1276.75 1534.01 1274.9 1531.86 Q1273.07 1529.7 1269.92 1529.7 M1279.2 1515.05 L1279.2 1519.31 Q1277.44 1518.48 1275.64 1518.04 Q1273.86 1517.6 1272.1 1517.6 Q1267.47 1517.6 1265.01 1520.72 Q1262.58 1523.85 1262.23 1530.17 Q1263.6 1528.15 1265.66 1527.09 Q1267.72 1526 1270.2 1526 Q1275.41 1526 1278.42 1529.17 Q1281.45 1532.32 1281.45 1537.76 Q1281.45 1543.08 1278.3 1546.3 Q1275.15 1549.52 1269.92 1549.52 Q1263.92 1549.52 1260.75 1544.94 Q1257.58 1540.33 1257.58 1531.6 Q1257.58 1523.41 1261.47 1518.55 Q1265.36 1513.66 1271.91 1513.66 Q1273.67 1513.66 1275.45 1514.01 Q1277.26 1514.36 1279.2 1515.05 Z" fill="#000000" fill-rule="evenodd" fill-opacity="1"></path><path clip-path="url(#clip700)" d="M1630.6 1532.44 Q1627.26 1532.44 1625.34 1534.22 Q1623.44 1536 1623.44 1539.13 Q1623.44 1542.25 1625.34 1544.03 Q1627.26 1545.82 1630.6 1545.82 Q1633.93 1545.82 1635.85 1544.03 Q1637.77 1542.23 1637.77 1539.13 Q1637.77 1536 1635.85 1534.22 Q1633.95 1532.44 1630.6 1532.44 M1625.92 1530.45 Q1622.91 1529.7 1621.22 1527.64 Q1619.55 1525.58 1619.55 1522.62 Q1619.55 1518.48 1622.49 1516.07 Q1625.46 1513.66 1630.6 1513.66 Q1635.76 1513.66 1638.7 1516.07 Q1641.64 1518.48 1641.64 1522.62 Q1641.64 1525.58 1639.95 1527.64 Q1638.28 1529.7 1635.29 1530.45 Q1638.67 1531.23 1640.55 1533.52 Q1642.45 1535.82 1642.45 1539.13 Q1642.45 1544.15 1639.37 1546.83 Q1636.31 1549.52 1630.6 1549.52 Q1624.88 1549.52 1621.8 1546.83 Q1618.74 1544.15 1618.74 1539.13 Q1618.74 1535.82 1620.64 1533.52 Q1622.54 1531.23 1625.92 1530.45 M1624.21 1523.06 Q1624.21 1525.75 1625.87 1527.25 Q1627.56 1528.76 1630.6 1528.76 Q1633.6 1528.76 1635.29 1527.25 Q1637.01 1525.75 1637.01 1523.06 Q1637.01 1520.38 1635.29 1518.87 Q1633.6 1517.37 1630.6 1517.37 Q1627.56 1517.37 1625.87 1518.87 Q1624.21 1520.38 1624.21 1523.06 Z" fill="#000000" fill-rule="evenodd" fill-opacity="1"></path><path clip-path="url(#clip700)" d="M1966.36 1544.91 L1974 1544.91 L1974 1518.55 L1965.69 1520.21 L1965.69 1515.95 L1973.96 1514.29 L1978.63 1514.29 L1978.63 1544.91 L1986.27 1544.91 L1986.27 1548.85 L1966.36 1548.85 L1966.36 1544.91 Z" fill="#000000" fill-rule="evenodd" fill-opacity="1"></path><path clip-path="url(#clip700)" d="M2005.71 1517.37 Q2002.1 1517.37 2000.28 1520.93 Q1998.47 1524.47 1998.47 1531.6 Q1998.47 1538.71 2000.28 1542.27 Q2002.1 1545.82 2005.71 1545.82 Q2009.35 1545.82 2011.15 1542.27 Q2012.98 1538.71 2012.98 1531.6 Q2012.98 1524.47 2011.15 1520.93 Q2009.35 1517.37 2005.71 1517.37 M2005.71 1513.66 Q2011.53 1513.66 2014.58 1518.27 Q2017.66 1522.85 2017.66 1531.6 Q2017.66 1540.33 2014.58 1544.94 Q2011.53 1549.52 2005.71 1549.52 Q1999.9 1549.52 1996.83 1544.94 Q1993.77 1540.33 1993.77 1531.6 Q1993.77 1522.85 1996.83 1518.27 Q1999.9 1513.66 2005.71 1513.66 Z" fill="#000000" fill-rule="evenodd" fill-opacity="1"></path><path clip-path="url(#clip700)" d="M2328.24 1544.91 L2335.88 1544.91 L2335.88 1518.55 L2327.57 1520.21 L2327.57 1515.95 L2335.83 1514.29 L2340.51 1514.29 L2340.51 1544.91 L2348.15 1544.91 L2348.15 1548.85 L2328.24 1548.85 L2328.24 1544.91 Z" fill="#000000" fill-rule="evenodd" fill-opacity="1"></path><path clip-path="url(#clip700)" d="M2361.62 1544.91 L2377.94 1544.91 L2377.94 1548.85 L2356 1548.85 L2356 1544.91 Q2358.66 1542.16 2363.24 1537.53 Q2367.85 1532.88 2369.03 1531.53 Q2371.27 1529.01 2372.15 1527.27 Q2373.06 1525.51 2373.06 1523.82 Q2373.06 1521.07 2371.11 1519.33 Q2369.19 1517.6 2366.09 1517.6 Q2363.89 1517.6 2361.44 1518.36 Q2359.01 1519.13 2356.23 1520.68 L2356.23 1515.95 Q2359.05 1514.82 2361.51 1514.24 Q2363.96 1513.66 2366 1513.66 Q2371.37 1513.66 2374.56 1516.35 Q2377.76 1519.03 2377.76 1523.52 Q2377.76 1525.65 2376.95 1527.57 Q2376.16 1529.47 2374.05 1532.07 Q2373.47 1532.74 2370.37 1535.95 Q2367.27 1539.15 2361.62 1544.91 Z" fill="#000000" fill-rule="evenodd" fill-opacity="1"></path><polyline clip-path="url(#clip702)" style="stroke:#000000; stroke-linecap:butt; stroke-linejoin:round; stroke-width:2; stroke-opacity:0.1; fill:none" points="
  186.274,1291.74 2352.76,1291.74 
  "></polyline>
<polyline clip-path="url(#clip702)" style="stroke:#000000; stroke-linecap:butt; stroke-linejoin:round; stroke-width:2; stroke-opacity:0.1; fill:none" points="
  186.274,1048.35 2352.76,1048.35 
  "></polyline>
<polyline clip-path="url(#clip702)" style="stroke:#000000; stroke-linecap:butt; stroke-linejoin:round; stroke-width:2; stroke-opacity:0.1; fill:none" points="
  186.274,804.96 2352.76,804.96 
  "></polyline>
<polyline clip-path="url(#clip702)" style="stroke:#000000; stroke-linecap:butt; stroke-linejoin:round; stroke-width:2; stroke-opacity:0.1; fill:none" points="
  186.274,561.571 2352.76,561.571 
  "></polyline>
<polyline clip-path="url(#clip702)" style="stroke:#000000; stroke-linecap:butt; stroke-linejoin:round; stroke-width:2; stroke-opacity:0.1; fill:none" points="
  186.274,318.183 2352.76,318.183 
  "></polyline>
<polyline clip-path="url(#clip700)" style="stroke:#000000; stroke-linecap:butt; stroke-linejoin:round; stroke-width:4; stroke-opacity:1; fill:none" points="
  186.274,1486.45 186.274,123.472 
  "></polyline>
<polyline clip-path="url(#clip700)" style="stroke:#000000; stroke-linecap:butt; stroke-linejoin:round; stroke-width:4; stroke-opacity:1; fill:none" points="
  186.274,1291.74 205.172,1291.74 
  "></polyline>
<polyline clip-path="url(#clip700)" style="stroke:#000000; stroke-linecap:butt; stroke-linejoin:round; stroke-width:4; stroke-opacity:1; fill:none" points="
  186.274,1048.35 205.172,1048.35 
  "></polyline>
<polyline clip-path="url(#clip700)" style="stroke:#000000; stroke-linecap:butt; stroke-linejoin:round; stroke-width:4; stroke-opacity:1; fill:none" points="
  186.274,804.96 205.172,804.96 
  "></polyline>
<polyline clip-path="url(#clip700)" style="stroke:#000000; stroke-linecap:butt; stroke-linejoin:round; stroke-width:4; stroke-opacity:1; fill:none" points="
  186.274,561.571 205.172,561.571 
  "></polyline>
<polyline clip-path="url(#clip700)" style="stroke:#000000; stroke-linecap:butt; stroke-linejoin:round; stroke-width:4; stroke-opacity:1; fill:none" points="
  186.274,318.183 205.172,318.183 
  "></polyline>
<path clip-path="url(#clip700)" d="M62.9365 1277.54 Q59.3254 1277.54 57.4967 1281.1 Q55.6912 1284.64 55.6912 1291.77 Q55.6912 1298.88 57.4967 1302.44 Q59.3254 1305.98 62.9365 1305.98 Q66.5707 1305.98 68.3763 1302.44 Q70.205 1298.88 70.205 1291.77 Q70.205 1284.64 68.3763 1281.1 Q66.5707 1277.54 62.9365 1277.54 M62.9365 1273.83 Q68.7467 1273.83 71.8022 1278.44 Q74.8809 1283.02 74.8809 1291.77 Q74.8809 1300.5 71.8022 1305.11 Q68.7467 1309.69 62.9365 1309.69 Q57.1264 1309.69 54.0477 1305.11 Q50.9921 1300.5 50.9921 1291.77 Q50.9921 1283.02 54.0477 1278.44 Q57.1264 1273.83 62.9365 1273.83 Z" fill="#000000" fill-rule="evenodd" fill-opacity="1"></path><path clip-path="url(#clip700)" d="M83.0984 1303.14 L87.9827 1303.14 L87.9827 1309.02 L83.0984 1309.02 L83.0984 1303.14 Z" fill="#000000" fill-rule="evenodd" fill-opacity="1"></path><path clip-path="url(#clip700)" d="M108.168 1277.54 Q104.557 1277.54 102.728 1281.1 Q100.922 1284.64 100.922 1291.77 Q100.922 1298.88 102.728 1302.44 Q104.557 1305.98 108.168 1305.98 Q111.802 1305.98 113.608 1302.44 Q115.436 1298.88 115.436 1291.77 Q115.436 1284.64 113.608 1281.1 Q111.802 1277.54 108.168 1277.54 M108.168 1273.83 Q113.978 1273.83 117.033 1278.44 Q120.112 1283.02 120.112 1291.77 Q120.112 1300.5 117.033 1305.11 Q113.978 1309.69 108.168 1309.69 Q102.358 1309.69 99.2789 1305.11 Q96.2234 1300.5 96.2234 1291.77 Q96.2234 1283.02 99.2789 1278.44 Q102.358 1273.83 108.168 1273.83 Z" fill="#000000" fill-rule="evenodd" fill-opacity="1"></path><path clip-path="url(#clip700)" d="M138.33 1277.54 Q134.719 1277.54 132.89 1281.1 Q131.084 1284.64 131.084 1291.77 Q131.084 1298.88 132.89 1302.44 Q134.719 1305.98 138.33 1305.98 Q141.964 1305.98 143.769 1302.44 Q145.598 1298.88 145.598 1291.77 Q145.598 1284.64 143.769 1281.1 Q141.964 1277.54 138.33 1277.54 M138.33 1273.83 Q144.14 1273.83 147.195 1278.44 Q150.274 1283.02 150.274 1291.77 Q150.274 1300.5 147.195 1305.11 Q144.14 1309.69 138.33 1309.69 Q132.519 1309.69 129.441 1305.11 Q126.385 1300.5 126.385 1291.77 Q126.385 1283.02 129.441 1278.44 Q132.519 1273.83 138.33 1273.83 Z" fill="#000000" fill-rule="evenodd" fill-opacity="1"></path><path clip-path="url(#clip700)" d="M63.9319 1034.15 Q60.3208 1034.15 58.4921 1037.71 Q56.6865 1041.25 56.6865 1048.38 Q56.6865 1055.49 58.4921 1059.05 Q60.3208 1062.6 63.9319 1062.6 Q67.5661 1062.6 69.3717 1059.05 Q71.2004 1055.49 71.2004 1048.38 Q71.2004 1041.25 69.3717 1037.71 Q67.5661 1034.15 63.9319 1034.15 M63.9319 1030.44 Q69.742 1030.44 72.7976 1035.05 Q75.8763 1039.63 75.8763 1048.38 Q75.8763 1057.11 72.7976 1061.72 Q69.742 1066.3 63.9319 1066.3 Q58.1217 1066.3 55.043 1061.72 Q51.9875 1057.11 51.9875 1048.38 Q51.9875 1039.63 55.043 1035.05 Q58.1217 1030.44 63.9319 1030.44 Z" fill="#000000" fill-rule="evenodd" fill-opacity="1"></path><path clip-path="url(#clip700)" d="M84.0938 1059.75 L88.978 1059.75 L88.978 1065.63 L84.0938 1065.63 L84.0938 1059.75 Z" fill="#000000" fill-rule="evenodd" fill-opacity="1"></path><path clip-path="url(#clip700)" d="M103.191 1061.69 L119.51 1061.69 L119.51 1065.63 L97.566 1065.63 L97.566 1061.69 Q100.228 1058.94 104.811 1054.31 Q109.418 1049.66 110.598 1048.31 Q112.844 1045.79 113.723 1044.05 Q114.626 1042.3 114.626 1040.61 Q114.626 1037.85 112.682 1036.11 Q110.76 1034.38 107.658 1034.38 Q105.459 1034.38 103.006 1035.14 Q100.575 1035.91 97.7974 1037.46 L97.7974 1032.74 Q100.621 1031.6 103.075 1031.02 Q105.529 1030.44 107.566 1030.44 Q112.936 1030.44 116.131 1033.13 Q119.325 1035.81 119.325 1040.3 Q119.325 1042.43 118.515 1044.36 Q117.728 1046.25 115.621 1048.85 Q115.043 1049.52 111.941 1052.74 Q108.839 1055.93 103.191 1061.69 Z" fill="#000000" fill-rule="evenodd" fill-opacity="1"></path><path clip-path="url(#clip700)" d="M129.371 1031.07 L147.728 1031.07 L147.728 1035 L133.654 1035 L133.654 1043.48 Q134.672 1043.13 135.691 1042.97 Q136.709 1042.78 137.728 1042.78 Q143.515 1042.78 146.894 1045.95 Q150.274 1049.12 150.274 1054.54 Q150.274 1060.12 146.802 1063.22 Q143.33 1066.3 137.01 1066.3 Q134.834 1066.3 132.566 1065.93 Q130.32 1065.56 127.913 1064.82 L127.913 1060.12 Q129.996 1061.25 132.219 1061.81 Q134.441 1062.36 136.918 1062.36 Q140.922 1062.36 143.26 1060.26 Q145.598 1058.15 145.598 1054.54 Q145.598 1050.93 143.26 1048.82 Q140.922 1046.72 136.918 1046.72 Q135.043 1046.72 133.168 1047.13 Q131.316 1047.55 129.371 1048.43 L129.371 1031.07 Z" fill="#000000" fill-rule="evenodd" fill-opacity="1"></path><path clip-path="url(#clip700)" d="M62.9365 790.759 Q59.3254 790.759 57.4967 794.323 Q55.6912 797.865 55.6912 804.995 Q55.6912 812.101 57.4967 815.666 Q59.3254 819.208 62.9365 819.208 Q66.5707 819.208 68.3763 815.666 Q70.205 812.101 70.205 804.995 Q70.205 797.865 68.3763 794.323 Q66.5707 790.759 62.9365 790.759 M62.9365 787.055 Q68.7467 787.055 71.8022 791.661 Q74.8809 796.245 74.8809 804.995 Q74.8809 813.722 71.8022 818.328 Q68.7467 822.911 62.9365 822.911 Q57.1264 822.911 54.0477 818.328 Q50.9921 813.722 50.9921 804.995 Q50.9921 796.245 54.0477 791.661 Q57.1264 787.055 62.9365 787.055 Z" fill="#000000" fill-rule="evenodd" fill-opacity="1"></path><path clip-path="url(#clip700)" d="M83.0984 816.36 L87.9827 816.36 L87.9827 822.24 L83.0984 822.24 L83.0984 816.36 Z" fill="#000000" fill-rule="evenodd" fill-opacity="1"></path><path clip-path="url(#clip700)" d="M98.2141 787.68 L116.57 787.68 L116.57 791.615 L102.496 791.615 L102.496 800.087 Q103.515 799.74 104.534 799.578 Q105.552 799.393 106.571 799.393 Q112.358 799.393 115.737 802.564 Q119.117 805.735 119.117 811.152 Q119.117 816.731 115.645 819.833 Q112.172 822.911 105.853 822.911 Q103.677 822.911 101.409 822.541 Q99.1632 822.171 96.7558 821.43 L96.7558 816.731 Q98.8391 817.865 101.061 818.421 Q103.284 818.976 105.76 818.976 Q109.765 818.976 112.103 816.87 Q114.441 814.763 114.441 811.152 Q114.441 807.541 112.103 805.435 Q109.765 803.328 105.76 803.328 Q103.885 803.328 102.01 803.745 Q100.159 804.161 98.2141 805.041 L98.2141 787.68 Z" fill="#000000" fill-rule="evenodd" fill-opacity="1"></path><path clip-path="url(#clip700)" d="M138.33 790.759 Q134.719 790.759 132.89 794.323 Q131.084 797.865 131.084 804.995 Q131.084 812.101 132.89 815.666 Q134.719 819.208 138.33 819.208 Q141.964 819.208 143.769 815.666 Q145.598 812.101 145.598 804.995 Q145.598 797.865 143.769 794.323 Q141.964 790.759 138.33 790.759 M138.33 787.055 Q144.14 787.055 147.195 791.661 Q150.274 796.245 150.274 804.995 Q150.274 813.722 147.195 818.328 Q144.14 822.911 138.33 822.911 Q132.519 822.911 129.441 818.328 Q126.385 813.722 126.385 804.995 Q126.385 796.245 129.441 791.661 Q132.519 787.055 138.33 787.055 Z" fill="#000000" fill-rule="evenodd" fill-opacity="1"></path><path clip-path="url(#clip700)" d="M63.9319 547.37 Q60.3208 547.37 58.4921 550.935 Q56.6865 554.477 56.6865 561.606 Q56.6865 568.713 58.4921 572.277 Q60.3208 575.819 63.9319 575.819 Q67.5661 575.819 69.3717 572.277 Q71.2004 568.713 71.2004 561.606 Q71.2004 554.477 69.3717 550.935 Q67.5661 547.37 63.9319 547.37 M63.9319 543.666 Q69.742 543.666 72.7976 548.273 Q75.8763 552.856 75.8763 561.606 Q75.8763 570.333 72.7976 574.939 Q69.742 579.523 63.9319 579.523 Q58.1217 579.523 55.043 574.939 Q51.9875 570.333 51.9875 561.606 Q51.9875 552.856 55.043 548.273 Q58.1217 543.666 63.9319 543.666 Z" fill="#000000" fill-rule="evenodd" fill-opacity="1"></path><path clip-path="url(#clip700)" d="M84.0938 572.972 L88.978 572.972 L88.978 578.851 L84.0938 578.851 L84.0938 572.972 Z" fill="#000000" fill-rule="evenodd" fill-opacity="1"></path><path clip-path="url(#clip700)" d="M97.9826 544.291 L120.205 544.291 L120.205 546.282 L107.658 578.851 L102.774 578.851 L114.58 548.227 L97.9826 548.227 L97.9826 544.291 Z" fill="#000000" fill-rule="evenodd" fill-opacity="1"></path><path clip-path="url(#clip700)" d="M129.371 544.291 L147.728 544.291 L147.728 548.227 L133.654 548.227 L133.654 556.699 Q134.672 556.352 135.691 556.19 Q136.709 556.004 137.728 556.004 Q143.515 556.004 146.894 559.176 Q150.274 562.347 150.274 567.764 Q150.274 573.342 146.802 576.444 Q143.33 579.523 137.01 579.523 Q134.834 579.523 132.566 579.152 Q130.32 578.782 127.913 578.041 L127.913 573.342 Q129.996 574.476 132.219 575.032 Q134.441 575.588 136.918 575.588 Q140.922 575.588 143.26 573.481 Q145.598 571.375 145.598 567.764 Q145.598 564.152 143.26 562.046 Q140.922 559.94 136.918 559.94 Q135.043 559.94 133.168 560.356 Q131.316 560.773 129.371 561.652 L129.371 544.291 Z" fill="#000000" fill-rule="evenodd" fill-opacity="1"></path><path clip-path="url(#clip700)" d="M53.7467 331.528 L61.3856 331.528 L61.3856 305.162 L53.0754 306.829 L53.0754 302.57 L61.3393 300.903 L66.0152 300.903 L66.0152 331.528 L73.654 331.528 L73.654 335.463 L53.7467 335.463 L53.7467 331.528 Z" fill="#000000" fill-rule="evenodd" fill-opacity="1"></path><path clip-path="url(#clip700)" d="M83.0984 329.583 L87.9827 329.583 L87.9827 335.463 L83.0984 335.463 L83.0984 329.583 Z" fill="#000000" fill-rule="evenodd" fill-opacity="1"></path><path clip-path="url(#clip700)" d="M108.168 303.982 Q104.557 303.982 102.728 307.546 Q100.922 311.088 100.922 318.218 Q100.922 325.324 102.728 328.889 Q104.557 332.431 108.168 332.431 Q111.802 332.431 113.608 328.889 Q115.436 325.324 115.436 318.218 Q115.436 311.088 113.608 307.546 Q111.802 303.982 108.168 303.982 M108.168 300.278 Q113.978 300.278 117.033 304.884 Q120.112 309.468 120.112 318.218 Q120.112 326.944 117.033 331.551 Q113.978 336.134 108.168 336.134 Q102.358 336.134 99.2789 331.551 Q96.2234 326.944 96.2234 318.218 Q96.2234 309.468 99.2789 304.884 Q102.358 300.278 108.168 300.278 Z" fill="#000000" fill-rule="evenodd" fill-opacity="1"></path><path clip-path="url(#clip700)" d="M138.33 303.982 Q134.719 303.982 132.89 307.546 Q131.084 311.088 131.084 318.218 Q131.084 325.324 132.89 328.889 Q134.719 332.431 138.33 332.431 Q141.964 332.431 143.769 328.889 Q145.598 325.324 145.598 318.218 Q145.598 311.088 143.769 307.546 Q141.964 303.982 138.33 303.982 M138.33 300.278 Q144.14 300.278 147.195 304.884 Q150.274 309.468 150.274 318.218 Q150.274 326.944 147.195 331.551 Q144.14 336.134 138.33 336.134 Q132.519 336.134 129.441 331.551 Q126.385 326.944 126.385 318.218 Q126.385 309.468 129.441 304.884 Q132.519 300.278 138.33 300.278 Z" fill="#000000" fill-rule="evenodd" fill-opacity="1"></path><path clip-path="url(#clip700)" d="M1029.05 9.62495 Q1023.63 18.942 1020.99 28.0566 Q1018.36 37.1711 1018.36 46.5287 Q1018.36 55.8863 1020.99 65.0818 Q1023.67 74.2369 1029.05 83.5134 L1022.57 83.5134 Q1016.5 73.9938 1013.46 64.7983 Q1010.46 55.6027 1010.46 46.5287 Q1010.46 37.4952 1013.46 28.3401 Q1016.45 19.1851 1022.57 9.62495 L1029.05 9.62495 Z" fill="#000000" fill-rule="evenodd" fill-opacity="1"></path><path clip-path="url(#clip700)" d="M1044.81 71.3202 L1044.81 63.8666 Q1047.89 65.3249 1051.05 66.0946 Q1054.21 66.8642 1057.25 66.8642 Q1065.35 66.8642 1069.6 61.436 Q1073.9 55.9673 1074.5 44.8678 Q1072.15 48.3516 1068.55 50.215 Q1064.94 52.0784 1060.57 52.0784 Q1051.5 52.0784 1046.19 46.6097 Q1040.92 41.1005 1040.92 31.5808 Q1040.92 22.2638 1046.43 16.633 Q1051.94 11.0023 1061.1 11.0023 Q1071.59 11.0023 1077.1 19.0636 Q1082.65 27.0843 1082.65 42.3968 Q1082.65 56.6965 1075.84 65.2439 Q1069.08 73.7508 1057.61 73.7508 Q1054.53 73.7508 1051.37 73.1431 Q1048.21 72.5355 1044.81 71.3202 M1061.1 45.678 Q1066.61 45.678 1069.81 41.9107 Q1073.05 38.1433 1073.05 31.5808 Q1073.05 25.0589 1069.81 21.2916 Q1066.61 17.4837 1061.1 17.4837 Q1055.59 17.4837 1052.35 21.2916 Q1049.15 25.0589 1049.15 31.5808 Q1049.15 38.1433 1052.35 41.9107 Q1055.59 45.678 1061.1 45.678 Z" fill="#000000" fill-rule="evenodd" fill-opacity="1"></path><path clip-path="url(#clip700)" d="M1114.85 17.4837 Q1108.53 17.4837 1105.33 23.7221 Q1102.17 29.92 1102.17 42.3968 Q1102.17 54.833 1105.33 61.0714 Q1108.53 67.2693 1114.85 67.2693 Q1121.21 67.2693 1124.37 61.0714 Q1127.57 54.833 1127.57 42.3968 Q1127.57 29.92 1124.37 23.7221 Q1121.21 17.4837 1114.85 17.4837 M1114.85 11.0023 Q1125.02 11.0023 1130.37 19.0636 Q1135.75 27.0843 1135.75 42.3968 Q1135.75 57.6687 1130.37 65.73 Q1125.02 73.7508 1114.85 73.7508 Q1104.68 73.7508 1099.3 65.73 Q1093.95 57.6687 1093.95 42.3968 Q1093.95 27.0843 1099.3 19.0636 Q1104.68 11.0023 1114.85 11.0023 Z" fill="#000000" fill-rule="evenodd" fill-opacity="1"></path><path clip-path="url(#clip700)" d="M1150.13 62.2867 L1158.68 62.2867 L1158.68 72.576 L1150.13 72.576 L1150.13 62.2867 Z" fill="#000000" fill-rule="evenodd" fill-opacity="1"></path><path clip-path="url(#clip700)" d="M1194.01 17.4837 Q1187.69 17.4837 1184.49 23.7221 Q1181.33 29.92 1181.33 42.3968 Q1181.33 54.833 1184.49 61.0714 Q1187.69 67.2693 1194.01 67.2693 Q1200.37 67.2693 1203.53 61.0714 Q1206.73 54.833 1206.73 42.3968 Q1206.73 29.92 1203.53 23.7221 Q1200.37 17.4837 1194.01 17.4837 M1194.01 11.0023 Q1204.17 11.0023 1209.52 19.0636 Q1214.91 27.0843 1214.91 42.3968 Q1214.91 57.6687 1209.52 65.73 Q1204.17 73.7508 1194.01 73.7508 Q1183.84 73.7508 1178.45 65.73 Q1173.1 57.6687 1173.1 42.3968 Q1173.1 27.0843 1178.45 19.0636 Q1183.84 11.0023 1194.01 11.0023 Z" fill="#000000" fill-rule="evenodd" fill-opacity="1"></path><path clip-path="url(#clip700)" d="M1230.14 62.2867 L1238.69 62.2867 L1238.69 69.2543 L1232.04 82.2172 L1226.82 82.2172 L1230.14 69.2543 L1230.14 62.2867 Z" fill="#000000" fill-rule="evenodd" fill-opacity="1"></path><path clip-path="url(#clip700)" d="M1301.6 49.7694 Q1292.56 49.7694 1289.08 51.8354 Q1285.6 53.9013 1285.6 58.8839 Q1285.6 62.8538 1288.19 65.2034 Q1290.82 67.5124 1295.32 67.5124 Q1301.52 67.5124 1305.24 63.1374 Q1309.01 58.7219 1309.01 51.4303 L1309.01 49.7694 L1301.6 49.7694 M1316.46 46.6907 L1316.46 72.576 L1309.01 72.576 L1309.01 65.6895 Q1306.46 69.8214 1302.65 71.8063 Q1298.84 73.7508 1293.33 73.7508 Q1286.37 73.7508 1282.23 69.8619 Q1278.14 65.9325 1278.14 59.3701 Q1278.14 51.7138 1283.25 47.825 Q1288.39 43.9361 1298.56 43.9361 L1309.01 43.9361 L1309.01 43.2069 Q1309.01 38.0623 1305.61 35.2672 Q1302.25 32.4315 1296.13 32.4315 Q1292.24 32.4315 1288.55 33.3632 Q1284.87 34.295 1281.47 36.1584 L1281.47 29.2718 Q1285.56 27.692 1289.4 26.9223 Q1293.25 26.1121 1296.9 26.1121 Q1306.74 26.1121 1311.6 31.2163 Q1316.46 36.3204 1316.46 46.6907 Z" fill="#000000" fill-rule="evenodd" fill-opacity="1"></path><path clip-path="url(#clip700)" d="M1369.53 45.1919 L1369.53 72.576 L1362.08 72.576 L1362.08 45.4349 Q1362.08 38.994 1359.57 35.7938 Q1357.05 32.5936 1352.03 32.5936 Q1346 32.5936 1342.51 36.4419 Q1339.03 40.2903 1339.03 46.9338 L1339.03 72.576 L1331.53 72.576 L1331.53 27.2059 L1339.03 27.2059 L1339.03 34.2544 Q1341.7 30.163 1345.31 28.1376 Q1348.95 26.1121 1353.69 26.1121 Q1361.51 26.1121 1365.52 30.9732 Q1369.53 35.7938 1369.53 45.1919 Z" fill="#000000" fill-rule="evenodd" fill-opacity="1"></path><path clip-path="url(#clip700)" d="M1414.25 49.3643 Q1414.25 41.2625 1410.89 36.8065 Q1407.57 32.3505 1401.53 32.3505 Q1395.54 32.3505 1392.18 36.8065 Q1388.85 41.2625 1388.85 49.3643 Q1388.85 57.4256 1392.18 61.8816 Q1395.54 66.3376 1401.53 66.3376 Q1407.57 66.3376 1410.89 61.8816 Q1414.25 57.4256 1414.25 49.3643 M1421.71 66.9452 Q1421.71 78.5308 1416.56 84.1616 Q1411.42 89.8329 1400.8 89.8329 Q1396.88 89.8329 1393.39 89.2252 Q1389.91 88.6581 1386.63 87.4428 L1386.63 80.1917 Q1389.91 81.9741 1393.11 82.8248 Q1396.31 83.6755 1399.63 83.6755 Q1406.96 83.6755 1410.61 79.8271 Q1414.25 76.0193 1414.25 68.282 L1414.25 64.5957 Q1411.94 68.6061 1408.34 70.5911 Q1404.73 72.576 1399.71 72.576 Q1391.37 72.576 1386.26 66.2161 Q1381.16 59.8562 1381.16 49.3643 Q1381.16 38.832 1386.26 32.472 Q1391.37 26.1121 1399.71 26.1121 Q1404.73 26.1121 1408.34 28.0971 Q1411.94 30.082 1414.25 34.0924 L1414.25 27.2059 L1421.71 27.2059 L1421.71 66.9452 Z" fill="#000000" fill-rule="evenodd" fill-opacity="1"></path><path clip-path="url(#clip700)" d="M1437.06 9.54393 L1444.51 9.54393 L1444.51 72.576 L1437.06 72.576 L1437.06 9.54393 Z" fill="#000000" fill-rule="evenodd" fill-opacity="1"></path><path clip-path="url(#clip700)" d="M1498.92 48.0275 L1498.92 51.6733 L1464.65 51.6733 Q1465.13 59.3701 1469.27 63.421 Q1473.44 67.4314 1480.85 67.4314 Q1485.14 67.4314 1489.15 66.3781 Q1493.21 65.3249 1497.18 63.2184 L1497.18 70.267 Q1493.17 71.9684 1488.95 72.8596 Q1484.74 73.7508 1480.41 73.7508 Q1469.55 73.7508 1463.19 67.4314 Q1456.87 61.1119 1456.87 50.3365 Q1456.87 39.1965 1462.86 32.6746 Q1468.9 26.1121 1479.11 26.1121 Q1488.26 26.1121 1493.57 32.0264 Q1498.92 37.9003 1498.92 48.0275 M1491.46 45.84 Q1491.38 39.7232 1488.02 36.0774 Q1484.7 32.4315 1479.19 32.4315 Q1472.95 32.4315 1469.18 35.9558 Q1465.46 39.4801 1464.89 45.8805 L1491.46 45.84 Z" fill="#000000" fill-rule="evenodd" fill-opacity="1"></path><path clip-path="url(#clip700)" d="M1509.98 9.62495 L1516.46 9.62495 Q1522.53 19.1851 1525.53 28.3401 Q1528.57 37.4952 1528.57 46.5287 Q1528.57 55.6027 1525.53 64.7983 Q1522.53 73.9938 1516.46 83.5134 L1509.98 83.5134 Q1515.36 74.2369 1518 65.0818 Q1520.67 55.8863 1520.67 46.5287 Q1520.67 37.1711 1518 28.0566 Q1515.36 18.942 1509.98 9.62495 Z" fill="#000000" fill-rule="evenodd" fill-opacity="1"></path><path clip-path="url(#clip702)" d="
M366.814 1097.03 L547.354 1291.74 L727.894 1291.74 L908.435 1291.74 L1088.97 1291.74 L1269.51 1291.74 L1450.06 1291.74 L1630.6 1291.74 L1811.14 1291.74 L1991.68 1291.74 
  L2172.22 1291.74 L2172.22 1291.74 L1991.68 1291.74 L1811.14 1291.74 L1630.6 1291.74 L1450.06 1291.74 L1269.51 1291.74 L1088.97 1291.74 L908.435 1291.74 L727.894 1291.74 
  L547.354 1291.74 L366.814 1097.03  Z
  " fill="#009af9" fill-rule="evenodd" fill-opacity="0.1"></path>
<polyline clip-path="url(#clip702)" style="stroke:#009af9; stroke-linecap:butt; stroke-linejoin:round; stroke-width:4; stroke-opacity:1; fill:none" points="
  366.814,1097.03 547.354,1291.74 727.894,1291.74 908.435,1291.74 1088.97,1291.74 1269.51,1291.74 1450.06,1291.74 1630.6,1291.74 1811.14,1291.74 1991.68,1291.74 
  2172.22,1291.74 
  "></polyline>
<path clip-path="url(#clip702)" d="
M366.814 1097.03 L547.354 1209.38 L727.894 1280.1 L908.435 1307.84 L1088.97 1315.43 L1269.51 1313.34 L1450.06 1309.76 L1630.6 1307.12 L1811.14 1302.82 L1991.68 1299.91 
  L2172.22 1297.68 L2172.22 1285 L1991.68 1281.98 L1811.14 1277.48 L1630.6 1269.22 L1450.06 1262.62 L1269.51 1249.55 L1088.97 1218.38 L908.435 1176.1 L727.894 1116.38 
  L547.354 1047.04 L366.814 1097.03  Z
  " fill="#e26f46" fill-rule="evenodd" fill-opacity="0.1"></path>
<polyline clip-path="url(#clip702)" style="stroke:#e26f46; stroke-linecap:butt; stroke-linejoin:round; stroke-width:4; stroke-opacity:1; fill:none" points="
  366.814,1097.03 547.354,1128.21 727.894,1198.24 908.435,1241.97 1088.97,1266.9 1269.51,1281.45 1450.06,1286.19 1630.6,1288.17 1811.14,1290.15 1991.68,1290.94 
  2172.22,1291.34 
  "></polyline>
<path clip-path="url(#clip702)" d="
M366.814 1097.03 L547.354 1224.35 L727.894 1282.81 L908.435 1303.85 L1088.97 1309.46 L1269.51 1307.87 L1450.06 1305.19 L1630.6 1303.22 L1811.14 1300.01 L1991.68 1297.84 
  L2172.22 1296.17 L2172.22 1286.71 L1991.68 1284.45 L1811.14 1281.1 L1630.6 1274.93 L1450.06 1270 L1269.51 1260.23 L1088.97 1236.86 L908.435 1204.74 L727.894 1157.22 
  L547.354 1091.53 L366.814 1097.03  Z
  " fill="#3da44d" fill-rule="evenodd" fill-opacity="0.1"></path>
<polyline clip-path="url(#clip702)" style="stroke:#3da44d; stroke-linecap:butt; stroke-linejoin:round; stroke-width:4; stroke-opacity:1; fill:none" points="
  366.814,1097.03 547.354,1157.94 727.894,1220.02 908.435,1254.29 1088.97,1273.16 1269.51,1284.05 1450.06,1287.6 1630.6,1289.07 1811.14,1290.55 1991.68,1291.15 
  2172.22,1291.44 
  "></polyline>
<path clip-path="url(#clip702)" d="
M366.814 1097.03 L547.354 989.86 L727.894 738.358 L908.435 580.543 L1088.97 475.221 L1269.51 408.461 L1450.06 379.99 L1630.6 364.916 L1811.14 349.263 L1991.68 339.133 
  L2172.22 332.476 L2172.22 306.48 L1991.68 302.414 L1811.14 297.464 L1630.6 291.145 L1450.06 287.821 L1269.51 285.043 L1088.97 292.164 L908.435 335.698 L727.894 445.376 
  L547.354 867.194 L366.814 1097.03  Z
  " fill="#c271d2" fill-rule="evenodd" fill-opacity="0.1"></path>
<polyline clip-path="url(#clip702)" style="stroke:#c271d2; stroke-linecap:butt; stroke-linejoin:round; stroke-width:4; stroke-opacity:1; fill:none" points="
  366.814,1097.03 547.354,928.527 727.894,591.867 908.435,458.12 1088.97,383.692 1269.51,346.752 1450.06,333.906 1630.6,328.031 1811.14,323.363 1991.68,320.773 
  2172.22,319.478 
  "></polyline>
<path clip-path="url(#clip702)" d="
M366.814 1097.03 L547.354 1223.32 L727.894 1276.07 L908.435 1298.89 L1088.97 1309.49 L1269.51 1309.23 L1450.06 1307.07 L1630.6 1304.73 L1811.14 1302.92 L1991.68 1300.16 
  L2172.22 1297.95 L2172.22 1284.32 L1991.68 1280.9 L1811.14 1275.74 L1630.6 1271.51 L1450.06 1264.35 L1269.51 1253.15 L1088.97 1230.64 L908.435 1186.22 L727.894 1141.25 
  L547.354 1084.17 L366.814 1097.03  Z
  " fill="#ac8d18" fill-rule="evenodd" fill-opacity="0.1"></path>
<polyline clip-path="url(#clip702)" style="stroke:#ac8d18; stroke-linecap:butt; stroke-linejoin:round; stroke-width:4; stroke-opacity:1; fill:none" points="
  366.814,1097.03 547.354,1153.74 727.894,1208.66 908.435,1242.56 1088.97,1270.06 1269.51,1281.19 1450.06,1285.71 1630.6,1288.12 1811.14,1289.33 1991.68,1290.53 
  2172.22,1291.13 
  "></polyline>
<path clip-path="url(#clip700)" d="
M1912.46 479.945 L2280.54 479.945 L2280.54 168.905 L1912.46 168.905  Z
  " fill="#ffffff" fill-rule="evenodd" fill-opacity="1"></path>
<polyline clip-path="url(#clip700)" style="stroke:#000000; stroke-linecap:butt; stroke-linejoin:round; stroke-width:4; stroke-opacity:1; fill:none" points="
  1912.46,479.945 2280.54,479.945 2280.54,168.905 1912.46,168.905 1912.46,479.945 
  "></polyline>
<polyline clip-path="url(#clip700)" style="stroke:#009af9; stroke-linecap:butt; stroke-linejoin:round; stroke-width:4; stroke-opacity:1; fill:none" points="
  1936.53,220.745 2080.96,220.745 
  "></polyline>
<path clip-path="url(#clip700)" d="M2105.71 234.089 L2113.35 234.089 L2113.35 207.724 L2105.04 209.391 L2105.04 205.131 L2113.3 203.465 L2117.98 203.465 L2117.98 234.089 L2125.61 234.089 L2125.61 238.025 L2105.71 238.025 L2105.71 234.089 Z" fill="#000000" fill-rule="evenodd" fill-opacity="1"></path><path clip-path="url(#clip700)" d="M2145.06 221.613 Q2141.72 221.613 2139.8 223.395 Q2137.91 225.177 2137.91 228.302 Q2137.91 231.427 2139.8 233.21 Q2141.72 234.992 2145.06 234.992 Q2148.39 234.992 2150.31 233.21 Q2152.23 231.404 2152.23 228.302 Q2152.23 225.177 2150.31 223.395 Q2148.41 221.613 2145.06 221.613 M2140.38 219.622 Q2137.37 218.881 2135.68 216.821 Q2134.02 214.761 2134.02 211.798 Q2134.02 207.654 2136.96 205.247 Q2139.92 202.84 2145.06 202.84 Q2150.22 202.84 2153.16 205.247 Q2156.1 207.654 2156.1 211.798 Q2156.1 214.761 2154.41 216.821 Q2152.74 218.881 2149.76 219.622 Q2153.14 220.409 2155.01 222.701 Q2156.91 224.992 2156.91 228.302 Q2156.91 233.326 2153.83 236.011 Q2150.78 238.696 2145.06 238.696 Q2139.34 238.696 2136.26 236.011 Q2133.21 233.326 2133.21 228.302 Q2133.21 224.992 2135.1 222.701 Q2137 220.409 2140.38 219.622 M2138.67 212.238 Q2138.67 214.923 2140.34 216.428 Q2142.03 217.932 2145.06 217.932 Q2148.07 217.932 2149.76 216.428 Q2151.47 214.923 2151.47 212.238 Q2151.47 209.553 2149.76 208.048 Q2148.07 206.543 2145.06 206.543 Q2142.03 206.543 2140.34 208.048 Q2138.67 209.553 2138.67 212.238 Z" fill="#000000" fill-rule="evenodd" fill-opacity="1"></path><path clip-path="url(#clip700)" d="M2175.22 206.543 Q2171.61 206.543 2169.78 210.108 Q2167.97 213.65 2167.97 220.779 Q2167.97 227.886 2169.78 231.451 Q2171.61 234.992 2175.22 234.992 Q2178.85 234.992 2180.66 231.451 Q2182.49 227.886 2182.49 220.779 Q2182.49 213.65 2180.66 210.108 Q2178.85 206.543 2175.22 206.543 M2175.22 202.84 Q2181.03 202.84 2184.09 207.446 Q2187.16 212.029 2187.16 220.779 Q2187.16 229.506 2184.09 234.113 Q2181.03 238.696 2175.22 238.696 Q2169.41 238.696 2166.33 234.113 Q2163.28 229.506 2163.28 220.779 Q2163.28 212.029 2166.33 207.446 Q2169.41 202.84 2175.22 202.84 Z" fill="#000000" fill-rule="evenodd" fill-opacity="1"></path><path clip-path="url(#clip700)" d="M2195.38 232.145 L2200.27 232.145 L2200.27 238.025 L2195.38 238.025 L2195.38 232.145 Z" fill="#000000" fill-rule="evenodd" fill-opacity="1"></path><path clip-path="url(#clip700)" d="M2220.45 206.543 Q2216.84 206.543 2215.01 210.108 Q2213.21 213.65 2213.21 220.779 Q2213.21 227.886 2215.01 231.451 Q2216.84 234.992 2220.45 234.992 Q2224.09 234.992 2225.89 231.451 Q2227.72 227.886 2227.72 220.779 Q2227.72 213.65 2225.89 210.108 Q2224.09 206.543 2220.45 206.543 M2220.45 202.84 Q2226.26 202.84 2229.32 207.446 Q2232.4 212.029 2232.4 220.779 Q2232.4 229.506 2229.32 234.113 Q2226.26 238.696 2220.45 238.696 Q2214.64 238.696 2211.56 234.113 Q2208.51 229.506 2208.51 220.779 Q2208.51 212.029 2211.56 207.446 Q2214.64 202.84 2220.45 202.84 Z" fill="#000000" fill-rule="evenodd" fill-opacity="1"></path><polyline clip-path="url(#clip700)" style="stroke:#e26f46; stroke-linecap:butt; stroke-linejoin:round; stroke-width:4; stroke-opacity:1; fill:none" points="
  1936.53,272.585 2080.96,272.585 
  "></polyline>
<path clip-path="url(#clip700)" d="M2105.71 285.929 L2113.35 285.929 L2113.35 259.564 L2105.04 261.231 L2105.04 256.971 L2113.3 255.305 L2117.98 255.305 L2117.98 285.929 L2125.61 285.929 L2125.61 289.865 L2105.71 289.865 L2105.71 285.929 Z" fill="#000000" fill-rule="evenodd" fill-opacity="1"></path><path clip-path="url(#clip700)" d="M2135.1 255.305 L2153.46 255.305 L2153.46 259.24 L2139.39 259.24 L2139.39 267.712 Q2140.41 267.365 2141.42 267.203 Q2142.44 267.018 2143.46 267.018 Q2149.25 267.018 2152.63 270.189 Q2156.01 273.36 2156.01 278.777 Q2156.01 284.355 2152.54 287.457 Q2149.06 290.536 2142.74 290.536 Q2140.57 290.536 2138.3 290.166 Q2136.05 289.795 2133.65 289.054 L2133.65 284.355 Q2135.73 285.49 2137.95 286.045 Q2140.17 286.601 2142.65 286.601 Q2146.66 286.601 2148.99 284.494 Q2151.33 282.388 2151.33 278.777 Q2151.33 275.166 2148.99 273.059 Q2146.66 270.953 2142.65 270.953 Q2140.78 270.953 2138.9 271.369 Q2137.05 271.786 2135.1 272.666 L2135.1 255.305 Z" fill="#000000" fill-rule="evenodd" fill-opacity="1"></path><path clip-path="url(#clip700)" d="M2164.04 255.305 L2186.26 255.305 L2186.26 257.295 L2173.72 289.865 L2168.83 289.865 L2180.64 259.24 L2164.04 259.24 L2164.04 255.305 Z" fill="#000000" fill-rule="evenodd" fill-opacity="1"></path><path clip-path="url(#clip700)" d="M2195.38 283.985 L2200.27 283.985 L2200.27 289.865 L2195.38 289.865 L2195.38 283.985 Z" fill="#000000" fill-rule="evenodd" fill-opacity="1"></path><path clip-path="url(#clip700)" d="M2210.5 255.305 L2228.85 255.305 L2228.85 259.24 L2214.78 259.24 L2214.78 267.712 Q2215.8 267.365 2216.82 267.203 Q2217.84 267.018 2218.85 267.018 Q2224.64 267.018 2228.02 270.189 Q2231.4 273.36 2231.4 278.777 Q2231.4 284.355 2227.93 287.457 Q2224.46 290.536 2218.14 290.536 Q2215.96 290.536 2213.69 290.166 Q2211.45 289.795 2209.04 289.054 L2209.04 284.355 Q2211.12 285.49 2213.34 286.045 Q2215.57 286.601 2218.04 286.601 Q2222.05 286.601 2224.39 284.494 Q2226.72 282.388 2226.72 278.777 Q2226.72 275.166 2224.39 273.059 Q2222.05 270.953 2218.04 270.953 Q2216.17 270.953 2214.29 271.369 Q2212.44 271.786 2210.5 272.666 L2210.5 255.305 Z" fill="#000000" fill-rule="evenodd" fill-opacity="1"></path><polyline clip-path="url(#clip700)" style="stroke:#3da44d; stroke-linecap:butt; stroke-linejoin:round; stroke-width:4; stroke-opacity:1; fill:none" points="
  1936.53,324.425 2080.96,324.425 
  "></polyline>
<path clip-path="url(#clip700)" d="M2105.71 337.769 L2113.35 337.769 L2113.35 311.404 L2105.04 313.071 L2105.04 308.811 L2113.3 307.145 L2117.98 307.145 L2117.98 337.769 L2125.61 337.769 L2125.61 341.705 L2105.71 341.705 L2105.71 337.769 Z" fill="#000000" fill-rule="evenodd" fill-opacity="1"></path><path clip-path="url(#clip700)" d="M2149.22 323.07 Q2152.58 323.788 2154.46 326.057 Q2156.35 328.325 2156.35 331.658 Q2156.35 336.774 2152.84 339.575 Q2149.32 342.376 2142.84 342.376 Q2140.66 342.376 2138.35 341.936 Q2136.05 341.519 2133.6 340.663 L2133.6 336.149 Q2135.54 337.283 2137.86 337.862 Q2140.17 338.441 2142.7 338.441 Q2147.1 338.441 2149.39 336.705 Q2151.7 334.969 2151.7 331.658 Q2151.7 328.603 2149.55 326.89 Q2147.42 325.154 2143.6 325.154 L2139.57 325.154 L2139.57 321.311 L2143.79 321.311 Q2147.23 321.311 2149.06 319.946 Q2150.89 318.557 2150.89 315.964 Q2150.89 313.302 2148.99 311.89 Q2147.12 310.455 2143.6 310.455 Q2141.68 310.455 2139.48 310.871 Q2137.28 311.288 2134.64 312.168 L2134.64 308.001 Q2137.3 307.26 2139.62 306.89 Q2141.96 306.52 2144.02 306.52 Q2149.34 306.52 2152.44 308.95 Q2155.54 311.358 2155.54 315.478 Q2155.54 318.348 2153.9 320.339 Q2152.26 322.307 2149.22 323.07 Z" fill="#000000" fill-rule="evenodd" fill-opacity="1"></path><path clip-path="url(#clip700)" d="M2165.27 307.145 L2183.62 307.145 L2183.62 311.08 L2169.55 311.08 L2169.55 319.552 Q2170.57 319.205 2171.59 319.043 Q2172.6 318.858 2173.62 318.858 Q2179.41 318.858 2182.79 322.029 Q2186.17 325.2 2186.17 330.617 Q2186.17 336.195 2182.7 339.297 Q2179.22 342.376 2172.91 342.376 Q2170.73 342.376 2168.46 342.006 Q2166.22 341.635 2163.81 340.894 L2163.81 336.195 Q2165.89 337.33 2168.11 337.885 Q2170.34 338.441 2172.81 338.441 Q2176.82 338.441 2179.16 336.334 Q2181.49 334.228 2181.49 330.617 Q2181.49 327.006 2179.16 324.899 Q2176.82 322.793 2172.81 322.793 Q2170.94 322.793 2169.06 323.209 Q2167.21 323.626 2165.27 324.506 L2165.27 307.145 Z" fill="#000000" fill-rule="evenodd" fill-opacity="1"></path><path clip-path="url(#clip700)" d="M2195.38 335.825 L2200.27 335.825 L2200.27 341.705 L2195.38 341.705 L2195.38 335.825 Z" fill="#000000" fill-rule="evenodd" fill-opacity="1"></path><path clip-path="url(#clip700)" d="M2220.45 310.223 Q2216.84 310.223 2215.01 313.788 Q2213.21 317.33 2213.21 324.459 Q2213.21 331.566 2215.01 335.131 Q2216.84 338.672 2220.45 338.672 Q2224.09 338.672 2225.89 335.131 Q2227.72 331.566 2227.72 324.459 Q2227.72 317.33 2225.89 313.788 Q2224.09 310.223 2220.45 310.223 M2220.45 306.52 Q2226.26 306.52 2229.32 311.126 Q2232.4 315.709 2232.4 324.459 Q2232.4 333.186 2229.32 337.793 Q2226.26 342.376 2220.45 342.376 Q2214.64 342.376 2211.56 337.793 Q2208.51 333.186 2208.51 324.459 Q2208.51 315.709 2211.56 311.126 Q2214.64 306.52 2220.45 306.52 Z" fill="#000000" fill-rule="evenodd" fill-opacity="1"></path><polyline clip-path="url(#clip700)" style="stroke:#c271d2; stroke-linecap:butt; stroke-linejoin:round; stroke-width:4; stroke-opacity:1; fill:none" points="
  1936.53,376.265 2080.96,376.265 
  "></polyline>
<path clip-path="url(#clip700)" d="M2107.26 392.827 L2107.26 388.568 Q2109.02 389.401 2110.82 389.841 Q2112.63 390.281 2114.36 390.281 Q2118.99 390.281 2121.42 387.179 Q2123.88 384.054 2124.23 377.711 Q2122.88 379.702 2120.82 380.767 Q2118.76 381.832 2116.26 381.832 Q2111.08 381.832 2108.04 378.707 Q2105.04 375.559 2105.04 370.119 Q2105.04 364.795 2108.18 361.577 Q2111.33 358.36 2116.56 358.36 Q2122.56 358.36 2125.71 362.966 Q2128.88 367.549 2128.88 376.299 Q2128.88 384.471 2124.99 389.355 Q2121.12 394.216 2114.57 394.216 Q2112.81 394.216 2111.01 393.869 Q2109.2 393.522 2107.26 392.827 M2116.56 378.174 Q2119.71 378.174 2121.54 376.022 Q2123.39 373.869 2123.39 370.119 Q2123.39 366.392 2121.54 364.239 Q2119.71 362.063 2116.56 362.063 Q2113.41 362.063 2111.56 364.239 Q2109.73 366.392 2109.73 370.119 Q2109.73 373.869 2111.56 376.022 Q2113.41 378.174 2116.56 378.174 Z" fill="#000000" fill-rule="evenodd" fill-opacity="1"></path><path clip-path="url(#clip700)" d="M2147.28 362.063 Q2143.67 362.063 2141.84 365.628 Q2140.04 369.17 2140.04 376.299 Q2140.04 383.406 2141.84 386.971 Q2143.67 390.512 2147.28 390.512 Q2150.91 390.512 2152.72 386.971 Q2154.55 383.406 2154.55 376.299 Q2154.55 369.17 2152.72 365.628 Q2150.91 362.063 2147.28 362.063 M2147.28 358.36 Q2153.09 358.36 2156.15 362.966 Q2159.22 367.549 2159.22 376.299 Q2159.22 385.026 2156.15 389.633 Q2153.09 394.216 2147.28 394.216 Q2141.47 394.216 2138.39 389.633 Q2135.34 385.026 2135.34 376.299 Q2135.34 367.549 2138.39 362.966 Q2141.47 358.36 2147.28 358.36 Z" fill="#000000" fill-rule="evenodd" fill-opacity="1"></path><path clip-path="url(#clip700)" d="M2167.44 387.665 L2172.33 387.665 L2172.33 393.545 L2167.44 393.545 L2167.44 387.665 Z" fill="#000000" fill-rule="evenodd" fill-opacity="1"></path><path clip-path="url(#clip700)" d="M2192.51 362.063 Q2188.9 362.063 2187.07 365.628 Q2185.27 369.17 2185.27 376.299 Q2185.27 383.406 2187.07 386.971 Q2188.9 390.512 2192.51 390.512 Q2196.15 390.512 2197.95 386.971 Q2199.78 383.406 2199.78 376.299 Q2199.78 369.17 2197.95 365.628 Q2196.15 362.063 2192.51 362.063 M2192.51 358.36 Q2198.32 358.36 2201.38 362.966 Q2204.46 367.549 2204.46 376.299 Q2204.46 385.026 2201.38 389.633 Q2198.32 394.216 2192.51 394.216 Q2186.7 394.216 2183.62 389.633 Q2180.57 385.026 2180.57 376.299 Q2180.57 367.549 2183.62 362.966 Q2186.7 358.36 2192.51 358.36 Z" fill="#000000" fill-rule="evenodd" fill-opacity="1"></path><polyline clip-path="url(#clip700)" style="stroke:#ac8d18; stroke-linecap:butt; stroke-linejoin:round; stroke-width:4; stroke-opacity:1; fill:none" points="
  1936.53,428.105 2080.96,428.105 
  "></polyline>
<path clip-path="url(#clip700)" d="M2116.98 413.903 Q2113.37 413.903 2111.54 417.468 Q2109.73 421.01 2109.73 428.139 Q2109.73 435.246 2111.54 438.811 Q2113.37 442.352 2116.98 442.352 Q2120.61 442.352 2122.42 438.811 Q2124.25 435.246 2124.25 428.139 Q2124.25 421.01 2122.42 417.468 Q2120.61 413.903 2116.98 413.903 M2116.98 410.2 Q2122.79 410.2 2125.85 414.806 Q2128.92 419.389 2128.92 428.139 Q2128.92 436.866 2125.85 441.473 Q2122.79 446.056 2116.98 446.056 Q2111.17 446.056 2108.09 441.473 Q2105.04 436.866 2105.04 428.139 Q2105.04 419.389 2108.09 414.806 Q2111.17 410.2 2116.98 410.2 Z" fill="#000000" fill-rule="evenodd" fill-opacity="1"></path><path clip-path="url(#clip700)" d="M2137.14 439.505 L2142.03 439.505 L2142.03 445.385 L2137.14 445.385 L2137.14 439.505 Z" fill="#000000" fill-rule="evenodd" fill-opacity="1"></path><path clip-path="url(#clip700)" d="M2162.21 413.903 Q2158.6 413.903 2156.77 417.468 Q2154.97 421.01 2154.97 428.139 Q2154.97 435.246 2156.77 438.811 Q2158.6 442.352 2162.21 442.352 Q2165.85 442.352 2167.65 438.811 Q2169.48 435.246 2169.48 428.139 Q2169.48 421.01 2167.65 417.468 Q2165.85 413.903 2162.21 413.903 M2162.21 410.2 Q2168.02 410.2 2171.08 414.806 Q2174.16 419.389 2174.16 428.139 Q2174.16 436.866 2171.08 441.473 Q2168.02 446.056 2162.21 446.056 Q2156.4 446.056 2153.32 441.473 Q2150.27 436.866 2150.27 428.139 Q2150.27 419.389 2153.32 414.806 Q2156.4 410.2 2162.21 410.2 Z" fill="#000000" fill-rule="evenodd" fill-opacity="1"></path></svg>