<svg xmlns="http://www.w3.org/2000/svg" xmlns:xlink="http://www.w3.org/1999/xlink" width="600" height="400" viewBox="0 0 2400 1600">
<defs>
  <clipPath id="clip270">
    <rect x="0" y="0" width="2400" height="1600"></rect>
  </clipPath>
</defs>
<path clip-path="url(#clip270)" d="
M0 1600 L2400 1600 L2400 0 L0 0  Z
  " fill="#ffffff" fill-rule="evenodd" fill-opacity="1"></path>
<defs>
  <clipPath id="clip271">
    <rect x="480" y="0" width="1681" height="1600"></rect>
  </clipPath>
</defs>
<path clip-path="url(#clip270)" d="
M273.146 1456.21 L2352.76 1456.21 L2352.76 127.792 L273.146 127.792  Z
  " fill="#ffffff" fill-rule="evenodd" fill-opacity="1"></path>
<defs>
  <clipPath id="clip272">
    <rect x="273" y="127" width="2081" height="1329"></rect>
  </clipPath>
</defs>
<polyline clip-path="url(#clip272)" style="stroke:#000000; stroke-linecap:butt; stroke-linejoin:round; stroke-width:2; stroke-opacity:0.1; fill:none" points="
  273.146,1456.21 273.146,127.792 
  "></polyline>
<polyline clip-path="url(#clip272)" style="stroke:#000000; stroke-linecap:butt; stroke-linejoin:round; stroke-width:2; stroke-opacity:0.1; fill:none" points="
  793.048,1456.21 793.048,127.792 
  "></polyline>
<polyline clip-path="url(#clip272)" style="stroke:#000000; stroke-linecap:butt; stroke-linejoin:round; stroke-width:2; stroke-opacity:0.1; fill:none" points="
  1312.95,1456.21 1312.95,127.792 
  "></polyline>
<polyline clip-path="url(#clip272)" style="stroke:#000000; stroke-linecap:butt; stroke-linejoin:round; stroke-width:2; stroke-opacity:0.1; fill:none" points="
  1832.85,1456.21 1832.85,127.792 
  "></polyline>
<polyline clip-path="url(#clip272)" style="stroke:#000000; stroke-linecap:butt; stroke-linejoin:round; stroke-width:2; stroke-opacity:0.1; fill:none" points="
  2352.76,1456.21 2352.76,127.792 
  "></polyline>
<polyline clip-path="url(#clip270)" style="stroke:#000000; stroke-linecap:butt; stroke-linejoin:round; stroke-width:4; stroke-opacity:1; fill:none" points="
  273.146,1456.21 2352.76,1456.21 
  "></polyline>
<polyline clip-path="url(#clip270)" style="stroke:#000000; stroke-linecap:butt; stroke-linejoin:round; stroke-width:4; stroke-opacity:1; fill:none" points="
  273.146,1456.21 273.146,1437.31 
  "></polyline>
<polyline clip-path="url(#clip270)" style="stroke:#000000; stroke-linecap:butt; stroke-linejoin:round; stroke-width:4; stroke-opacity:1; fill:none" points="
  793.048,1456.21 793.048,1437.31 
  "></polyline>
<polyline clip-path="url(#clip270)" style="stroke:#000000; stroke-linecap:butt; stroke-linejoin:round; stroke-width:4; stroke-opacity:1; fill:none" points="
  1312.95,1456.21 1312.95,1437.31 
  "></polyline>
<polyline clip-path="url(#clip270)" style="stroke:#000000; stroke-linecap:butt; stroke-linejoin:round; stroke-width:4; stroke-opacity:1; fill:none" points="
  1832.85,1456.21 1832.85,1437.31 
  "></polyline>
<polyline clip-path="url(#clip270)" style="stroke:#000000; stroke-linecap:butt; stroke-linejoin:round; stroke-width:4; stroke-opacity:1; fill:none" points="
  2352.76,1456.21 2352.76,1437.31 
  "></polyline>
<path clip-path="url(#clip270)" d="M273.146 1497.38 Q266.375 1497.38 262.946 1504.06 Q259.561 1510.7 259.561 1524.07 Q259.561 1537.4 262.946 1544.08 Q266.375 1550.72 273.146 1550.72 Q279.96 1550.72 283.345 1544.08 Q286.774 1537.4 286.774 1524.07 Q286.774 1510.7 283.345 1504.06 Q279.96 1497.38 273.146 1497.38 M273.146 1490.44 Q284.04 1490.44 289.769 1499.07 Q295.541 1507.67 295.541 1524.07 Q295.541 1540.44 289.769 1549.07 Q284.04 1557.67 273.146 1557.67 Q262.252 1557.67 256.479 1549.07 Q250.75 1540.44 250.75 1524.07 Q250.75 1507.67 256.479 1499.07 Q262.252 1490.44 273.146 1490.44 Z" fill="#000000" fill-rule="evenodd" fill-opacity="1"></path><path clip-path="url(#clip270)" d="M774.819 1491.61 L809.237 1491.61 L809.237 1498.99 L782.849 1498.99 L782.849 1514.87 Q784.758 1514.22 786.668 1513.92 Q788.578 1513.57 790.487 1513.57 Q801.338 1513.57 807.675 1519.52 Q814.012 1525.46 814.012 1535.62 Q814.012 1546.08 807.501 1551.89 Q800.991 1557.67 789.142 1557.67 Q785.062 1557.67 780.809 1556.97 Q776.599 1556.28 772.085 1554.89 L772.085 1546.08 Q775.991 1548.2 780.158 1549.25 Q784.324 1550.29 788.968 1550.29 Q796.477 1550.29 800.861 1546.34 Q805.244 1542.39 805.244 1535.62 Q805.244 1528.85 800.861 1524.9 Q796.477 1520.95 788.968 1520.95 Q785.453 1520.95 781.937 1521.73 Q778.465 1522.51 774.819 1524.16 L774.819 1491.61 Z" fill="#000000" fill-rule="evenodd" fill-opacity="1"></path><path clip-path="url(#clip270)" d="M1265.49 1549.03 L1279.81 1549.03 L1279.81 1499.59 L1264.23 1502.72 L1264.23 1494.73 L1279.73 1491.61 L1288.49 1491.61 L1288.49 1549.03 L1302.82 1549.03 L1302.82 1556.41 L1265.49 1556.41 L1265.49 1549.03 Z" fill="#000000" fill-rule="evenodd" fill-opacity="1"></path><path clip-path="url(#clip270)" d="M1339.27 1497.38 Q1332.5 1497.38 1329.07 1504.06 Q1325.69 1510.7 1325.69 1524.07 Q1325.69 1537.4 1329.07 1544.08 Q1332.5 1550.72 1339.27 1550.72 Q1346.09 1550.72 1349.47 1544.08 Q1352.9 1537.4 1352.9 1524.07 Q1352.9 1510.7 1349.47 1504.06 Q1346.09 1497.38 1339.27 1497.38 M1339.27 1490.44 Q1350.17 1490.44 1355.9 1499.07 Q1361.67 1507.67 1361.67 1524.07 Q1361.67 1540.44 1355.9 1549.07 Q1350.17 1557.67 1339.27 1557.67 Q1328.38 1557.67 1322.61 1549.07 Q1316.88 1540.44 1316.88 1524.07 Q1316.88 1507.67 1322.61 1499.07 Q1328.38 1490.44 1339.27 1490.44 Z" fill="#000000" fill-rule="evenodd" fill-opacity="1"></path><path clip-path="url(#clip270)" d="M1786.33 1549.03 L1800.65 1549.03 L1800.65 1499.59 L1785.07 1502.72 L1785.07 1494.73 L1800.56 1491.61 L1809.33 1491.61 L1809.33 1549.03 L1823.65 1549.03 L1823.65 1556.41 L1786.33 1556.41 L1786.33 1549.03 Z" fill="#000000" fill-rule="evenodd" fill-opacity="1"></path><path clip-path="url(#clip270)" d="M1841.45 1491.61 L1875.87 1491.61 L1875.87 1498.99 L1849.48 1498.99 L1849.48 1514.87 Q1851.39 1514.22 1853.3 1513.92 Q1855.21 1513.57 1857.12 1513.57 Q1867.97 1513.57 1874.3 1519.52 Q1880.64 1525.46 1880.64 1535.62 Q1880.64 1546.08 1874.13 1551.89 Q1867.62 1557.67 1855.77 1557.67 Q1851.69 1557.67 1847.44 1556.97 Q1843.23 1556.28 1838.71 1554.89 L1838.71 1546.08 Q1842.62 1548.2 1846.79 1549.25 Q1850.95 1550.29 1855.6 1550.29 Q1863.1 1550.29 1867.49 1546.34 Q1871.87 1542.39 1871.87 1535.62 Q1871.87 1528.85 1867.49 1524.9 Q1863.1 1520.95 1855.6 1520.95 Q1852.08 1520.95 1848.57 1521.73 Q1845.09 1522.51 1841.45 1524.16 L1841.45 1491.61 Z" fill="#000000" fill-rule="evenodd" fill-opacity="1"></path><path clip-path="url(#clip270)" d="M2312.96 1549.03 L2343.55 1549.03 L2343.55 1556.41 L2302.41 1556.41 L2302.41 1549.03 Q2307.4 1543.86 2315.99 1535.18 Q2324.63 1526.46 2326.84 1523.94 Q2331.05 1519.21 2332.7 1515.96 Q2334.4 1512.66 2334.4 1509.49 Q2334.4 1504.32 2330.75 1501.07 Q2327.15 1497.81 2321.33 1497.81 Q2317.21 1497.81 2312.61 1499.25 Q2308.05 1500.68 2302.84 1503.59 L2302.84 1494.73 Q2308.14 1492.61 2312.74 1491.52 Q2317.34 1490.44 2321.16 1490.44 Q2331.23 1490.44 2337.22 1495.47 Q2343.21 1500.51 2343.21 1508.93 Q2343.21 1512.92 2341.69 1516.52 Q2340.21 1520.08 2336.26 1524.94 Q2335.18 1526.2 2329.36 1532.23 Q2323.55 1538.22 2312.96 1549.03 Z" fill="#000000" fill-rule="evenodd" fill-opacity="1"></path><path clip-path="url(#clip270)" d="M2380.71 1497.38 Q2373.94 1497.38 2370.51 1504.06 Q2367.12 1510.7 2367.12 1524.07 Q2367.12 1537.4 2370.51 1544.08 Q2373.94 1550.72 2380.71 1550.72 Q2387.52 1550.72 2390.91 1544.08 Q2394.34 1537.4 2394.34 1524.07 Q2394.34 1510.7 2390.91 1504.06 Q2387.52 1497.38 2380.71 1497.38 M2380.71 1490.44 Q2391.6 1490.44 2397.33 1499.07 Q2403.1 1507.67 2403.1 1524.07 Q2403.1 1540.44 2397.33 1549.07 Q2391.6 1557.67 2380.71 1557.67 Q2369.81 1557.67 2364.04 1549.07 Q2358.31 1540.44 2358.31 1524.07 Q2358.31 1507.67 2364.04 1499.07 Q2369.81 1490.44 2380.71 1490.44 Z" fill="#000000" fill-rule="evenodd" fill-opacity="1"></path><polyline clip-path="url(#clip272)" style="stroke:#000000; stroke-linecap:butt; stroke-linejoin:round; stroke-width:2; stroke-opacity:0.1; fill:none" points="
  273.146,1266.43 2352.76,1266.43 
  "></polyline>
<polyline clip-path="url(#clip272)" style="stroke:#000000; stroke-linecap:butt; stroke-linejoin:round; stroke-width:2; stroke-opacity:0.1; fill:none" points="
  273.146,1029.22 2352.76,1029.22 
  "></polyline>
<polyline clip-path="url(#clip272)" style="stroke:#000000; stroke-linecap:butt; stroke-linejoin:round; stroke-width:2; stroke-opacity:0.1; fill:none" points="
  273.146,792 2352.76,792 
  "></polyline>
<polyline clip-path="url(#clip272)" style="stroke:#000000; stroke-linecap:butt; stroke-linejoin:round; stroke-width:2; stroke-opacity:0.1; fill:none" points="
  273.146,554.783 2352.76,554.783 
  "></polyline>
<polyline clip-path="url(#clip272)" style="stroke:#000000; stroke-linecap:butt; stroke-linejoin:round; stroke-width:2; stroke-opacity:0.1; fill:none" points="
  273.146,317.566 2352.76,317.566 
  "></polyline>
<polyline clip-path="url(#clip270)" style="stroke:#000000; stroke-linecap:butt; stroke-linejoin:round; stroke-width:4; stroke-opacity:1; fill:none" points="
  273.146,1456.21 273.146,127.792 
  "></polyline>
<polyline clip-path="url(#clip270)" style="stroke:#000000; stroke-linecap:butt; stroke-linejoin:round; stroke-width:4; stroke-opacity:1; fill:none" points="
  273.146,1266.43 292.043,1266.43 
  "></polyline>
<polyline clip-path="url(#clip270)" style="stroke:#000000; stroke-linecap:butt; stroke-linejoin:round; stroke-width:4; stroke-opacity:1; fill:none" points="
  273.146,1029.22 292.043,1029.22 
  "></polyline>
<polyline clip-path="url(#clip270)" style="stroke:#000000; stroke-linecap:butt; stroke-linejoin:round; stroke-width:4; stroke-opacity:1; fill:none" points="
  273.146,792 292.043,792 
  "></polyline>
<polyline clip-path="url(#clip270)" style="stroke:#000000; stroke-linecap:butt; stroke-linejoin:round; stroke-width:4; stroke-opacity:1; fill:none" points="
  273.146,554.783 292.043,554.783 
  "></polyline>
<polyline clip-path="url(#clip270)" style="stroke:#000000; stroke-linecap:butt; stroke-linejoin:round; stroke-width:4; stroke-opacity:1; fill:none" points="
  273.146,317.566 292.043,317.566 
  "></polyline>
<path clip-path="url(#clip270)" d="M73.3878 1239.81 Q66.617 1239.81 63.1882 1246.49 Q59.8028 1253.13 59.8028 1266.5 Q59.8028 1279.82 63.1882 1286.51 Q66.617 1293.15 73.3878 1293.15 Q80.202 1293.15 83.5874 1286.51 Q87.0162 1279.82 87.0162 1266.5 Q87.0162 1253.13 83.5874 1246.49 Q80.202 1239.81 73.3878 1239.81 M73.3878 1232.86 Q84.2819 1232.86 90.011 1241.5 Q95.7836 1250.09 95.7836 1266.5 Q95.7836 1282.86 90.011 1291.5 Q84.2819 1300.09 73.3878 1300.09 Q62.4938 1300.09 56.7213 1291.5 Q50.9921 1282.86 50.9921 1266.5 Q50.9921 1250.09 56.7213 1241.5 Q62.4938 1232.86 73.3878 1232.86 Z" fill="#000000" fill-rule="evenodd" fill-opacity="1"></path><path clip-path="url(#clip270)" d="M111.191 1287.81 L120.349 1287.81 L120.349 1298.83 L111.191 1298.83 L111.191 1287.81 Z" fill="#000000" fill-rule="evenodd" fill-opacity="1"></path><path clip-path="url(#clip270)" d="M158.196 1239.81 Q151.426 1239.81 147.997 1246.49 Q144.611 1253.13 144.611 1266.5 Q144.611 1279.82 147.997 1286.51 Q151.426 1293.15 158.196 1293.15 Q165.011 1293.15 168.396 1286.51 Q171.825 1279.82 171.825 1266.5 Q171.825 1253.13 168.396 1246.49 Q165.011 1239.81 158.196 1239.81 M158.196 1232.86 Q169.09 1232.86 174.82 1241.5 Q180.592 1250.09 180.592 1266.5 Q180.592 1282.86 174.82 1291.5 Q169.09 1300.09 158.196 1300.09 Q147.302 1300.09 141.53 1291.5 Q135.801 1282.86 135.801 1266.5 Q135.801 1250.09 141.53 1241.5 Q147.302 1232.86 158.196 1232.86 Z" fill="#000000" fill-rule="evenodd" fill-opacity="1"></path><path clip-path="url(#clip270)" d="M214.75 1239.81 Q207.979 1239.81 204.55 1246.49 Q201.165 1253.13 201.165 1266.5 Q201.165 1279.82 204.55 1286.51 Q207.979 1293.15 214.75 1293.15 Q221.564 1293.15 224.95 1286.51 Q228.378 1279.82 228.378 1266.5 Q228.378 1253.13 224.95 1246.49 Q221.564 1239.81 214.75 1239.81 M214.75 1232.86 Q225.644 1232.86 231.373 1241.5 Q237.146 1250.09 237.146 1266.5 Q237.146 1282.86 231.373 1291.5 Q225.644 1300.09 214.75 1300.09 Q203.856 1300.09 198.083 1291.5 Q192.354 1282.86 192.354 1266.5 Q192.354 1250.09 198.083 1241.5 Q203.856 1232.86 214.75 1232.86 Z" fill="#000000" fill-rule="evenodd" fill-opacity="1"></path><path clip-path="url(#clip270)" d="M75.2541 1002.59 Q68.4834 1002.59 65.0546 1009.27 Q61.6692 1015.91 61.6692 1029.28 Q61.6692 1042.61 65.0546 1049.29 Q68.4834 1055.93 75.2541 1055.93 Q82.0683 1055.93 85.4537 1049.29 Q88.8825 1042.61 88.8825 1029.28 Q88.8825 1015.91 85.4537 1009.27 Q82.0683 1002.59 75.2541 1002.59 M75.2541 995.645 Q86.1482 995.645 91.8773 1004.28 Q97.6499 1012.88 97.6499 1029.28 Q97.6499 1045.64 91.8773 1054.28 Q86.1482 1062.88 75.2541 1062.88 Q64.3601 1062.88 58.5876 1054.28 Q52.8584 1045.64 52.8584 1029.28 Q52.8584 1012.88 58.5876 1004.28 Q64.3601 995.645 75.2541 995.645 Z" fill="#000000" fill-rule="evenodd" fill-opacity="1"></path><path clip-path="url(#clip270)" d="M113.058 1050.59 L122.216 1050.59 L122.216 1061.62 L113.058 1061.62 L113.058 1050.59 Z" fill="#000000" fill-rule="evenodd" fill-opacity="1"></path><path clip-path="url(#clip270)" d="M148.865 1054.24 L179.464 1054.24 L179.464 1061.62 L138.318 1061.62 L138.318 1054.24 Q143.309 1049.07 151.903 1040.39 Q160.54 1031.67 162.754 1029.15 Q166.964 1024.42 168.613 1021.17 Q170.306 1017.87 170.306 1014.7 Q170.306 1009.53 166.66 1006.28 Q163.057 1003.02 157.242 1003.02 Q153.118 1003.02 148.518 1004.46 Q143.96 1005.89 138.752 1008.8 L138.752 999.942 Q144.047 997.815 148.648 996.73 Q153.249 995.645 157.068 995.645 Q167.137 995.645 173.127 1000.68 Q179.116 1005.71 179.116 1014.13 Q179.116 1018.13 177.597 1021.73 Q176.122 1025.29 172.172 1030.15 Q171.087 1031.41 165.271 1037.44 Q159.455 1043.43 148.865 1054.24 Z" fill="#000000" fill-rule="evenodd" fill-opacity="1"></path><path clip-path="url(#clip270)" d="M197.953 996.817 L232.371 996.817 L232.371 1004.2 L205.983 1004.2 L205.983 1020.08 Q207.892 1019.43 209.802 1019.13 Q211.712 1018.78 213.621 1018.78 Q224.472 1018.78 230.809 1024.72 Q237.146 1030.67 237.146 1040.83 Q237.146 1051.29 230.635 1057.1 Q224.125 1062.88 212.276 1062.88 Q208.196 1062.88 203.943 1062.18 Q199.733 1061.49 195.219 1060.1 L195.219 1051.29 Q199.125 1053.41 203.292 1054.46 Q207.458 1055.5 212.102 1055.5 Q219.611 1055.5 223.995 1051.55 Q228.378 1047.6 228.378 1040.83 Q228.378 1034.06 223.995 1030.11 Q219.611 1026.16 212.102 1026.16 Q208.587 1026.16 205.071 1026.94 Q201.599 1027.72 197.953 1029.37 L197.953 996.817 Z" fill="#000000" fill-rule="evenodd" fill-opacity="1"></path><path clip-path="url(#clip270)" d="M73.3878 765.373 Q66.617 765.373 63.1882 772.057 Q59.8028 778.697 59.8028 792.065 Q59.8028 805.39 63.1882 812.074 Q66.617 818.714 73.3878 818.714 Q80.202 818.714 83.5874 812.074 Q87.0162 805.39 87.0162 792.065 Q87.0162 778.697 83.5874 772.057 Q80.202 765.373 73.3878 765.373 M73.3878 758.428 Q84.2819 758.428 90.011 767.065 Q95.7836 775.659 95.7836 792.065 Q95.7836 808.428 90.011 817.065 Q84.2819 825.659 73.3878 825.659 Q62.4938 825.659 56.7213 817.065 Q50.9921 808.428 50.9921 792.065 Q50.9921 775.659 56.7213 767.065 Q62.4938 758.428 73.3878 758.428 Z" fill="#000000" fill-rule="evenodd" fill-opacity="1"></path><path clip-path="url(#clip270)" d="M111.191 813.376 L120.349 813.376 L120.349 824.4 L111.191 824.4 L111.191 813.376 Z" fill="#000000" fill-rule="evenodd" fill-opacity="1"></path><path clip-path="url(#clip270)" d="M139.533 759.6 L173.952 759.6 L173.952 766.978 L147.563 766.978 L147.563 782.864 Q149.473 782.213 151.382 781.909 Q153.292 781.562 155.202 781.562 Q166.052 781.562 172.389 787.508 Q178.726 793.454 178.726 803.61 Q178.726 814.07 172.215 819.886 Q165.705 825.659 153.856 825.659 Q149.776 825.659 145.523 824.964 Q141.313 824.27 136.799 822.881 L136.799 814.07 Q140.705 816.197 144.872 817.239 Q149.038 818.28 153.683 818.28 Q161.191 818.28 165.575 814.331 Q169.959 810.381 169.959 803.61 Q169.959 796.839 165.575 792.89 Q161.191 788.94 153.683 788.94 Q150.167 788.94 146.651 789.721 Q143.179 790.503 139.533 792.152 L139.533 759.6 Z" fill="#000000" fill-rule="evenodd" fill-opacity="1"></path><path clip-path="url(#clip270)" d="M214.75 765.373 Q207.979 765.373 204.55 772.057 Q201.165 778.697 201.165 792.065 Q201.165 805.39 204.55 812.074 Q207.979 818.714 214.75 818.714 Q221.564 818.714 224.95 812.074 Q228.378 805.39 228.378 792.065 Q228.378 778.697 224.95 772.057 Q221.564 765.373 214.75 765.373 M214.75 758.428 Q225.644 758.428 231.373 767.065 Q237.146 775.659 237.146 792.065 Q237.146 808.428 231.373 817.065 Q225.644 825.659 214.75 825.659 Q203.856 825.659 198.083 817.065 Q192.354 808.428 192.354 792.065 Q192.354 775.659 198.083 767.065 Q203.856 758.428 214.75 758.428 Z" fill="#000000" fill-rule="evenodd" fill-opacity="1"></path><path clip-path="url(#clip270)" d="M75.2541 528.155 Q68.4834 528.155 65.0546 534.839 Q61.6692 541.48 61.6692 554.848 Q61.6692 568.173 65.0546 574.857 Q68.4834 581.497 75.2541 581.497 Q82.0683 581.497 85.4537 574.857 Q88.8825 568.173 88.8825 554.848 Q88.8825 541.48 85.4537 534.839 Q82.0683 528.155 75.2541 528.155 M75.2541 521.211 Q86.1482 521.211 91.8773 529.848 Q97.6499 538.442 97.6499 554.848 Q97.6499 571.211 91.8773 579.848 Q86.1482 588.442 75.2541 588.442 Q64.3601 588.442 58.5876 579.848 Q52.8584 571.211 52.8584 554.848 Q52.8584 538.442 58.5876 529.848 Q64.3601 521.211 75.2541 521.211 Z" fill="#000000" fill-rule="evenodd" fill-opacity="1"></path><path clip-path="url(#clip270)" d="M113.058 576.159 L122.216 576.159 L122.216 587.183 L113.058 587.183 L113.058 576.159 Z" fill="#000000" fill-rule="evenodd" fill-opacity="1"></path><path clip-path="url(#clip270)" d="M139.099 522.383 L180.766 522.383 L180.766 526.116 L157.242 587.183 L148.084 587.183 L170.219 529.761 L139.099 529.761 L139.099 522.383 Z" fill="#000000" fill-rule="evenodd" fill-opacity="1"></path><path clip-path="url(#clip270)" d="M197.953 522.383 L232.371 522.383 L232.371 529.761 L205.983 529.761 L205.983 545.647 Q207.892 544.996 209.802 544.692 Q211.712 544.345 213.621 544.345 Q224.472 544.345 230.809 550.291 Q237.146 556.237 237.146 566.393 Q237.146 576.853 230.635 582.669 Q224.125 588.442 212.276 588.442 Q208.196 588.442 203.943 587.747 Q199.733 587.053 195.219 585.664 L195.219 576.853 Q199.125 578.98 203.292 580.021 Q207.458 581.063 212.102 581.063 Q219.611 581.063 223.995 577.114 Q228.378 573.164 228.378 566.393 Q228.378 559.622 223.995 555.673 Q219.611 551.723 212.102 551.723 Q208.587 551.723 205.071 552.504 Q201.599 553.286 197.953 554.935 L197.953 522.383 Z" fill="#000000" fill-rule="evenodd" fill-opacity="1"></path><path clip-path="url(#clip270)" d="M56.157 342.587 L70.4799 342.587 L70.4799 293.152 L54.8984 296.277 L54.8984 288.291 L70.3931 285.166 L79.1604 285.166 L79.1604 342.587 L93.4832 342.587 L93.4832 349.966 L56.157 349.966 L56.157 342.587 Z" fill="#000000" fill-rule="evenodd" fill-opacity="1"></path><path clip-path="url(#clip270)" d="M111.191 338.942 L120.349 338.942 L120.349 349.966 L111.191 349.966 L111.191 338.942 Z" fill="#000000" fill-rule="evenodd" fill-opacity="1"></path><path clip-path="url(#clip270)" d="M158.196 290.938 Q151.426 290.938 147.997 297.622 Q144.611 304.263 144.611 317.631 Q144.611 330.955 147.997 337.639 Q151.426 344.28 158.196 344.28 Q165.011 344.28 168.396 337.639 Q171.825 330.955 171.825 317.631 Q171.825 304.263 168.396 297.622 Q165.011 290.938 158.196 290.938 M158.196 283.994 Q169.09 283.994 174.82 292.631 Q180.592 301.225 180.592 317.631 Q180.592 333.994 174.82 342.631 Q169.09 351.224 158.196 351.224 Q147.302 351.224 141.53 342.631 Q135.801 333.994 135.801 317.631 Q135.801 301.225 141.53 292.631 Q147.302 283.994 158.196 283.994 Z" fill="#000000" fill-rule="evenodd" fill-opacity="1"></path><path clip-path="url(#clip270)" d="M214.75 290.938 Q207.979 290.938 204.55 297.622 Q201.165 304.263 201.165 317.631 Q201.165 330.955 204.55 337.639 Q207.979 344.28 214.75 344.28 Q221.564 344.28 224.95 337.639 Q228.378 330.955 228.378 317.631 Q228.378 304.263 224.95 297.622 Q221.564 290.938 214.75 290.938 M214.75 283.994 Q225.644 283.994 231.373 292.631 Q237.146 301.225 237.146 317.631 Q237.146 333.994 231.373 342.631 Q225.644 351.224 214.75 351.224 Q203.856 351.224 198.083 342.631 Q192.354 333.994 192.354 317.631 Q192.354 301.225 198.083 292.631 Q203.856 283.994 214.75 283.994 Z" fill="#000000" fill-rule="evenodd" fill-opacity="1"></path><path clip-path="url(#clip270)" d="M1029.55 12.96 L1084.37 12.96 L1084.37 20.3384 L1061.37 20.3384 L1061.37 77.76 L1052.56 77.76 L1052.56 20.3384 L1029.55 20.3384 L1029.55 12.96 Z" fill="#000000" fill-rule="evenodd" fill-opacity="1"></path><path clip-path="url(#clip270)" d="M1107.59 36.6144 Q1106.25 35.8331 1104.64 35.4859 Q1103.08 35.0953 1101.17 35.0953 Q1094.4 35.0953 1090.75 39.5224 Q1087.15 43.906 1087.15 52.1525 L1087.15 77.76 L1079.12 77.76 L1079.12 29.1491 L1087.15 29.1491 L1087.15 36.7012 Q1089.67 32.2741 1093.7 30.1474 Q1097.74 27.9773 1103.51 27.9773 Q1104.34 27.9773 1105.33 28.1075 Q1106.33 28.1943 1107.55 28.4113 L1107.59 36.6144 Z" fill="#000000" fill-rule="evenodd" fill-opacity="1"></path><path clip-path="url(#clip270)" d="M1115.14 58.5761 L1115.14 29.1491 L1123.13 29.1491 L1123.13 58.2723 Q1123.13 65.1733 1125.82 68.6455 Q1128.51 72.0743 1133.89 72.0743 Q1140.36 72.0743 1144.09 67.951 Q1147.87 63.8278 1147.87 56.7098 L1147.87 29.1491 L1155.86 29.1491 L1155.86 77.76 L1147.87 77.76 L1147.87 70.2948 Q1144.96 74.7218 1141.1 76.8919 Q1137.28 79.0187 1132.2 79.0187 Q1123.82 79.0187 1119.48 73.8104 Q1115.14 68.6021 1115.14 58.5761 M1135.24 27.9773 L1135.24 27.9773 Z" fill="#000000" fill-rule="evenodd" fill-opacity="1"></path><path clip-path="url(#clip270)" d="M1213.88 51.4581 L1213.88 55.3643 L1177.17 55.3643 Q1177.69 63.6108 1182.11 67.951 Q1186.58 72.2479 1194.53 72.2479 Q1199.13 72.2479 1203.42 71.1194 Q1207.76 69.9909 1212.02 67.734 L1212.02 75.2861 Q1207.72 77.109 1203.21 78.0638 Q1198.69 79.0187 1194.05 79.0187 Q1182.42 79.0187 1175.6 72.2479 Q1168.83 65.4771 1168.83 53.932 Q1168.83 41.9963 1175.26 35.0085 Q1181.72 27.9773 1192.66 27.9773 Q1202.47 27.9773 1208.16 34.3141 Q1213.88 40.6074 1213.88 51.4581 M1205.9 49.1143 Q1205.81 42.5605 1202.21 38.6543 Q1198.65 34.7481 1192.75 34.7481 Q1186.06 34.7481 1182.03 38.5241 Q1178.03 42.3001 1177.43 49.1577 L1205.9 49.1143 Z" fill="#000000" fill-rule="evenodd" fill-opacity="1"></path><path clip-path="url(#clip270)" d="M1294.44 15.0867 L1294.44 23.637 Q1289.45 21.2499 1285.02 20.078 Q1280.59 18.9061 1276.47 18.9061 Q1269.31 18.9061 1265.4 21.6839 Q1261.54 24.4617 1261.54 29.5832 Q1261.54 33.88 1264.1 36.0936 Q1266.71 38.2637 1273.91 39.6092 L1279.21 40.6942 Q1289.01 42.5605 1293.66 47.2914 Q1298.35 51.9789 1298.35 59.8782 Q1298.35 69.2965 1292.01 74.1576 Q1285.72 79.0187 1273.52 79.0187 Q1268.92 79.0187 1263.71 77.977 Q1258.55 76.9354 1252.99 74.8954 L1252.99 65.8677 Q1258.33 68.8625 1263.45 70.3816 Q1268.57 71.9007 1273.52 71.9007 Q1281.03 71.9007 1285.11 68.9493 Q1289.19 65.9979 1289.19 60.5292 Q1289.19 55.7549 1286.24 53.064 Q1283.33 50.373 1276.64 49.0275 L1271.31 47.9859 Q1261.5 46.0327 1257.11 41.8661 Q1252.73 37.6995 1252.73 30.2776 Q1252.73 21.6839 1258.76 16.736 Q1264.84 11.7881 1275.47 11.7881 Q1280.03 11.7881 1284.76 12.6128 Q1289.49 13.4374 1294.44 15.0867 Z" fill="#000000" fill-rule="evenodd" fill-opacity="1"></path><path clip-path="url(#clip270)" d="M1328.73 77.76 L1303.99 12.96 L1313.15 12.96 L1333.68 67.517 L1354.25 12.96 L1363.36 12.96 L1338.67 77.76 L1328.73 77.76 Z" fill="#000000" fill-rule="evenodd" fill-opacity="1"></path><path clip-path="url(#clip270)" d="M1397.56 18.9061 Q1388.02 18.9061 1382.37 26.0242 Q1376.77 33.1422 1376.77 45.4251 Q1376.77 57.6646 1382.37 64.7826 Q1388.02 71.9007 1397.56 71.9007 Q1407.11 71.9007 1412.67 64.7826 Q1418.27 57.6646 1418.27 45.4251 Q1418.27 33.1422 1412.67 26.0242 Q1407.11 18.9061 1397.56 18.9061 M1397.56 11.7881 Q1411.19 11.7881 1419.35 20.9461 Q1427.51 30.0606 1427.51 45.4251 Q1427.51 60.7462 1419.35 69.9041 Q1411.19 79.0187 1397.56 79.0187 Q1383.89 79.0187 1375.69 69.9041 Q1367.53 60.7896 1367.53 45.4251 Q1367.53 30.0606 1375.69 20.9461 Q1383.89 11.7881 1397.56 11.7881 Z" fill="#000000" fill-rule="evenodd" fill-opacity="1"></path><path clip-path="url(#clip270)" d="M1441.36 66.7358 L1450.52 66.7358 L1450.52 77.76 L1441.36 77.76 L1441.36 66.7358 M1441.36 31.7967 L1450.52 31.7967 L1450.52 42.821 L1441.36 42.821 L1441.36 31.7967 Z" fill="#000000" fill-rule="evenodd" fill-opacity="1"></path><path clip-path="url(#clip270)" d="M1489.14 18.7325 Q1482.37 18.7325 1478.94 25.4165 Q1475.56 32.0571 1475.56 45.4251 Q1475.56 58.7497 1478.94 65.4337 Q1482.37 72.0743 1489.14 72.0743 Q1495.96 72.0743 1499.34 65.4337 Q1502.77 58.7497 1502.77 45.4251 Q1502.77 32.0571 1499.34 25.4165 Q1495.96 18.7325 1489.14 18.7325 M1489.14 11.7881 Q1500.04 11.7881 1505.77 20.4252 Q1511.54 29.0189 1511.54 45.4251 Q1511.54 61.7879 1505.77 70.425 Q1500.04 79.0187 1489.14 79.0187 Q1478.25 79.0187 1472.48 70.425 Q1466.75 61.7879 1466.75 45.4251 Q1466.75 29.0189 1472.48 20.4252 Q1478.25 11.7881 1489.14 11.7881 Z" fill="#000000" fill-rule="evenodd" fill-opacity="1"></path><path clip-path="url(#clip270)" d="M1526.95 66.7358 L1536.1 66.7358 L1536.1 77.76 L1526.95 77.76 L1526.95 66.7358 Z" fill="#000000" fill-rule="evenodd" fill-opacity="1"></path><path clip-path="url(#clip270)" d="M1573.95 18.7325 Q1567.18 18.7325 1563.75 25.4165 Q1560.37 32.0571 1560.37 45.4251 Q1560.37 58.7497 1563.75 65.4337 Q1567.18 72.0743 1573.95 72.0743 Q1580.77 72.0743 1584.15 65.4337 Q1587.58 58.7497 1587.58 45.4251 Q1587.58 32.0571 1584.15 25.4165 Q1580.77 18.7325 1573.95 18.7325 M1573.95 11.7881 Q1584.85 11.7881 1590.58 20.4252 Q1596.35 29.0189 1596.35 45.4251 Q1596.35 61.7879 1590.58 70.425 Q1584.85 79.0187 1573.95 79.0187 Q1563.06 79.0187 1557.29 70.425 Q1551.56 61.7879 1551.56 45.4251 Q1551.56 29.0189 1557.29 20.4252 Q1563.06 11.7881 1573.95 11.7881 Z" fill="#000000" fill-rule="evenodd" fill-opacity="1"></path><path clip-path="url(#clip272)" d="
M273.146 1076.66 L377.126 1144.59 L481.107 1244.66 L585.087 1291.01 L689.068 1304.31 L793.048 1302.32 L897.029 1295.9 L1001.01 1289.41 L1104.99 1284.48 L1208.97 1280.74 
  L1312.95 1277.27 L1416.93 1275.57 L1520.91 1269.61 L1624.89 1266.43 L1728.87 1266.43 L1832.85 1266.43 L1936.83 1266.43 L2040.81 1266.43 L2144.79 1266.43 L2248.78 1266.43 
  L2352.76 1266.43 L2352.76 1266.43 L2248.78 1266.43 L2144.79 1266.43 L2040.81 1266.43 L1936.83 1266.43 L1832.85 1266.43 L1728.87 1266.43 L1624.89 1266.43 L1520.91 1263.13 
  L1416.93 1256.13 L1312.95 1253.91 L1208.97 1249.02 L1104.99 1243.07 L1001.01 1233.87 L897.029 1217.91 L793.048 1191.3 L689.068 1149.24 L585.087 1076.96 L481.107 981.944 
  L377.126 907.387 L273.146 1076.66  Z
  " fill="#009af9" fill-rule="evenodd" fill-opacity="0.1"></path>
<polyline clip-path="url(#clip272)" style="stroke:#009af9; stroke-linecap:butt; stroke-linejoin:round; stroke-width:4; stroke-opacity:1; fill:none" points="
  273.146,1076.66 377.126,1025.99 481.107,1113.3 585.087,1183.99 689.068,1226.77 793.048,1246.81 897.029,1256.91 1001.01,1261.64 1104.99,1263.78 1208.97,1264.88 
  1312.95,1265.59 1416.93,1265.85 1520.91,1266.37 1624.89,1266.43 1728.87,1266.43 1832.85,1266.43 1936.83,1266.43 2040.81,1266.43 2144.79,1266.43 2248.78,1266.43 
  2352.76,1266.43 
  "></polyline>
<path clip-path="url(#clip272)" d="
M273.146 1076.66 L377.126 1266.43 L481.107 1266.43 L585.087 1266.43 L689.068 1266.43 L793.048 1266.43 L897.029 1266.43 L1001.01 1266.43 L1104.99 1266.43 L1208.97 1266.43 
  L1312.95 1266.43 L1416.93 1266.43 L1520.91 1266.43 L1624.89 1266.43 L1728.87 1266.43 L1832.85 1266.43 L1936.83 1266.43 L2040.81 1266.43 L2144.79 1266.43 L2248.78 1266.43 
  L2352.76 1266.43 L2352.76 1266.43 L2248.78 1266.43 L2144.79 1266.43 L2040.81 1266.43 L1936.83 1266.43 L1832.85 1266.43 L1728.87 1266.43 L1624.89 1266.43 L1520.91 1266.43 
  L1416.93 1266.43 L1312.95 1266.43 L1208.97 1266.43 L1104.99 1266.43 L1001.01 1266.43 L897.029 1266.43 L793.048 1266.43 L689.068 1266.43 L585.087 1266.43 L481.107 1266.43 
  L377.126 1266.43 L273.146 1076.66  Z
  " fill="#e26f46" fill-rule="evenodd" fill-opacity="0.1"></path>
<polyline clip-path="url(#clip272)" style="stroke:#e26f46; stroke-linecap:butt; stroke-linejoin:round; stroke-width:4; stroke-opacity:1; fill:none" points="
  273.146,1076.66 377.126,1266.43 481.107,1266.43 585.087,1266.43 689.068,1266.43 793.048,1266.43 897.029,1266.43 1001.01,1266.43 1104.99,1266.43 1208.97,1266.43 
  1312.95,1266.43 1416.93,1266.43 1520.91,1266.43 1624.89,1266.43 1728.87,1266.43 1832.85,1266.43 1936.83,1266.43 2040.81,1266.43 2144.79,1266.43 2248.78,1266.43 
  2352.76,1266.43 
  "></polyline>
<path clip-path="url(#clip272)" d="
M273.146 1076.66 L377.126 1266.43 L481.107 1266.43 L585.087 1266.43 L689.068 1266.43 L793.048 1266.43 L897.029 1266.43 L1001.01 1266.43 L1104.99 1266.43 L1208.97 1266.43 
  L1312.95 1266.43 L1416.93 1266.43 L1520.91 1266.43 L1624.89 1266.43 L1728.87 1266.43 L1832.85 1266.43 L1936.83 1266.43 L2040.81 1266.43 L2144.79 1266.43 L2248.78 1266.43 
  L2352.76 1266.43 L2352.76 1266.43 L2248.78 1266.43 L2144.79 1266.43 L2040.81 1266.43 L1936.83 1266.43 L1832.85 1266.43 L1728.87 1266.43 L1624.89 1266.43 L1520.91 1266.43 
  L1416.93 1266.43 L1312.95 1266.43 L1208.97 1266.43 L1104.99 1266.43 L1001.01 1266.43 L897.029 1266.43 L793.048 1266.43 L689.068 1266.43 L585.087 1266.43 L481.107 1266.43 
  L377.126 1266.43 L273.146 1076.66  Z
  " fill="#3da44d" fill-rule="evenodd" fill-opacity="0.1"></path>
<polyline clip-path="url(#clip272)" style="stroke:#3da44d; stroke-linecap:butt; stroke-linejoin:round; stroke-width:4; stroke-opacity:1; fill:none" points="
  273.146,1076.66 377.126,1266.43 481.107,1266.43 585.087,1266.43 689.068,1266.43 793.048,1266.43 897.029,1266.43 1001.01,1266.43 1104.99,1266.43 1208.97,1266.43 
  1312.95,1266.43 1416.93,1266.43 1520.91,1266.43 1624.89,1266.43 1728.87,1266.43 1832.85,1266.43 1936.83,1266.43 2040.81,1266.43 2144.79,1266.43 2248.78,1266.43 
  2352.76,1266.43 
  "></polyline>
<path clip-path="url(#clip272)" d="
M273.146 1076.66 L377.126 1151.05 L481.107 1247.76 L585.087 1292.14 L689.068 1304.26 L793.048 1302.62 L897.029 1295.7 L1001.01 1290 L1104.99 1283.91 L1208.97 1279.62 
  L1312.95 1274.55 L1416.93 1271.85 L1520.91 1269.61 L1624.89 1266.43 L1728.87 1266.43 L1832.85 1266.43 L1936.83 1266.43 L2040.81 1266.43 L2144.79 1266.43 L2248.78 1266.43 
  L2352.76 1266.43 L2352.76 1266.43 L2248.78 1266.43 L2144.79 1266.43 L2040.81 1266.43 L1936.83 1266.43 L1832.85 1266.43 L1728.87 1266.43 L1624.89 1266.43 L1520.91 1263.13 
  L1416.93 1260.63 L1312.95 1257.41 L1208.97 1250.66 L1104.99 1244.03 L1001.01 1232.63 L897.029 1218.5 L793.048 1189.32 L689.068 1148.13 L585.087 1080.94 L481.107 987.547 
  L377.126 913.84 L273.146 1076.66  Z
  " fill="#c271d2" fill-rule="evenodd" fill-opacity="0.1"></path>
<polyline clip-path="url(#clip272)" style="stroke:#c271d2; stroke-linecap:butt; stroke-linejoin:round; stroke-width:4; stroke-opacity:1; fill:none" points="
  273.146,1076.66 377.126,1032.44 481.107,1117.65 585.087,1186.54 689.068,1226.19 793.048,1245.97 897.029,1257.1 1001.01,1261.31 1104.99,1263.97 1208.97,1265.14 
  1312.95,1265.98 1416.93,1266.24 1520.91,1266.37 1624.89,1266.43 1728.87,1266.43 1832.85,1266.43 1936.83,1266.43 2040.81,1266.43 2144.79,1266.43 2248.78,1266.43 
  2352.76,1266.43 
  "></polyline>
<path clip-path="url(#clip272)" d="
M273.146 1076.66 L377.126 995.329 L481.107 808.714 L585.087 624.281 L689.068 504.525 L793.048 435.788 L897.029 390.899 L1001.01 367.259 L1104.99 351.376 L1208.97 341.866 
  L1312.95 333.34 L1416.93 329.563 L1520.91 322.278 L1624.89 317.566 L1728.87 317.566 L1832.85 317.566 L1936.83 317.566 L2040.81 317.566 L2144.79 317.566 L2248.78 317.566 
  L2352.76 317.566 L2352.76 317.566 L2248.78 317.566 L2144.79 317.566 L2040.81 317.566 L1936.83 317.566 L1832.85 317.566 L1728.87 317.566 L1624.89 317.566 L1520.91 313.113 
  L1416.93 307.124 L1312.95 304.384 L1208.97 298.969 L1104.99 293.996 L1001.01 287.704 L897.029 281.953 L793.048 279.587 L689.068 291.027 L585.087 341.358 L481.107 481.271 
  L377.126 995.329 L273.146 1076.66  Z
  " fill="#ac8d18" fill-rule="evenodd" fill-opacity="0.1"></path>
<polyline clip-path="url(#clip272)" style="stroke:#ac8d18; stroke-linecap:butt; stroke-linejoin:round; stroke-width:4; stroke-opacity:1; fill:none" points="
  273.146,1076.66 377.126,995.329 481.107,644.992 585.087,482.82 689.068,397.776 793.048,357.688 897.029,336.426 1001.01,327.482 1104.99,322.686 1208.97,320.417 
  1312.95,318.862 1416.93,318.344 1520.91,317.695 1624.89,317.566 1728.87,317.566 1832.85,317.566 1936.83,317.566 2040.81,317.566 2144.79,317.566 2248.78,317.566 
  2352.76,317.566 
  "></polyline>
<path clip-path="url(#clip270)" d="
M1845.41 677.513 L2283.44 677.513 L2283.44 172.073 L1845.41 172.073  Z
  " fill="#ffffff" fill-rule="evenodd" fill-opacity="1"></path>
<polyline clip-path="url(#clip270)" style="stroke:#000000; stroke-linecap:butt; stroke-linejoin:round; stroke-width:4; stroke-opacity:1; fill:none" points="
  1845.41,677.513 2283.44,677.513 2283.44,172.073 1845.41,172.073 1845.41,677.513 
  "></polyline>
<polyline clip-path="url(#clip270)" style="stroke:#009af9; stroke-linecap:butt; stroke-linejoin:round; stroke-width:6.5; stroke-opacity:1; fill:none" points="
  1868.51,256.313 2007.15,256.313 
  "></polyline>
<path clip-path="url(#clip270)" d="M2031.35 277.998 L2043.77 277.998 L2043.77 235.154 L2030.26 237.862 L2030.26 230.941 L2043.69 228.233 L2051.29 228.233 L2051.29 277.998 L2063.7 277.998 L2063.7 284.393 L2031.35 284.393 L2031.35 277.998 Z" fill="#000000" fill-rule="evenodd" fill-opacity="1"></path><path clip-path="url(#clip270)" d="M2095.3 257.723 Q2089.88 257.723 2086.76 260.62 Q2083.68 263.516 2083.68 268.594 Q2083.68 273.672 2086.76 276.569 Q2089.88 279.465 2095.3 279.465 Q2100.72 279.465 2103.84 276.569 Q2106.96 273.635 2106.96 268.594 Q2106.96 263.516 2103.84 260.62 Q2100.75 257.723 2095.3 257.723 M2087.7 254.488 Q2082.81 253.285 2080.06 249.937 Q2077.36 246.589 2077.36 241.774 Q2077.36 235.041 2082.13 231.129 Q2086.95 227.217 2095.3 227.217 Q2103.69 227.217 2108.46 231.129 Q2113.24 235.041 2113.24 241.774 Q2113.24 246.589 2110.5 249.937 Q2107.79 253.285 2102.93 254.488 Q2108.43 255.767 2111.47 259.491 Q2114.56 263.215 2114.56 268.594 Q2114.56 276.757 2109.55 281.12 Q2104.59 285.484 2095.3 285.484 Q2086.01 285.484 2081 281.12 Q2076.04 276.757 2076.04 268.594 Q2076.04 263.215 2079.12 259.491 Q2082.21 255.767 2087.7 254.488 M2084.92 242.489 Q2084.92 246.852 2087.63 249.297 Q2090.37 251.742 2095.3 251.742 Q2100.19 251.742 2102.93 249.297 Q2105.72 246.852 2105.72 242.489 Q2105.72 238.126 2102.93 235.681 Q2100.19 233.236 2095.3 233.236 Q2090.37 233.236 2087.63 235.681 Q2084.92 238.126 2084.92 242.489 Z" fill="#000000" fill-rule="evenodd" fill-opacity="1"></path><path clip-path="url(#clip270)" d="M2144.31 233.236 Q2138.44 233.236 2135.47 239.028 Q2132.54 244.783 2132.54 256.369 Q2132.54 267.917 2135.47 273.71 Q2138.44 279.465 2144.31 279.465 Q2150.22 279.465 2153.15 273.71 Q2156.12 267.917 2156.12 256.369 Q2156.12 244.783 2153.15 239.028 Q2150.22 233.236 2144.31 233.236 M2144.31 227.217 Q2153.75 227.217 2158.72 234.703 Q2163.72 242.15 2163.72 256.369 Q2163.72 270.55 2158.72 278.036 Q2153.75 285.484 2144.31 285.484 Q2134.87 285.484 2129.87 278.036 Q2124.9 270.55 2124.9 256.369 Q2124.9 242.15 2129.87 234.703 Q2134.87 227.217 2144.31 227.217 Z" fill="#000000" fill-rule="evenodd" fill-opacity="1"></path><path clip-path="url(#clip270)" d="M2177.07 274.838 L2185.01 274.838 L2185.01 284.393 L2177.07 284.393 L2177.07 274.838 Z" fill="#000000" fill-rule="evenodd" fill-opacity="1"></path><path clip-path="url(#clip270)" d="M2217.81 233.236 Q2211.94 233.236 2208.97 239.028 Q2206.04 244.783 2206.04 256.369 Q2206.04 267.917 2208.97 273.71 Q2211.94 279.465 2217.81 279.465 Q2223.72 279.465 2226.65 273.71 Q2229.62 267.917 2229.62 256.369 Q2229.62 244.783 2226.65 239.028 Q2223.72 233.236 2217.81 233.236 M2217.81 227.217 Q2227.25 227.217 2232.22 234.703 Q2237.22 242.15 2237.22 256.369 Q2237.22 270.55 2232.22 278.036 Q2227.25 285.484 2217.81 285.484 Q2208.37 285.484 2203.37 278.036 Q2198.4 270.55 2198.4 256.369 Q2198.4 242.15 2203.37 234.703 Q2208.37 227.217 2217.81 227.217 Z" fill="#000000" fill-rule="evenodd" fill-opacity="1"></path><polyline clip-path="url(#clip270)" style="stroke:#e26f46; stroke-linecap:butt; stroke-linejoin:round; stroke-width:6.5; stroke-opacity:1; fill:none" points="
  1868.51,340.553 2007.15,340.553 
  "></polyline>
<path clip-path="url(#clip270)" d="M2031.35 362.238 L2043.77 362.238 L2043.77 319.394 L2030.26 322.102 L2030.26 315.181 L2043.69 312.473 L2051.29 312.473 L2051.29 362.238 L2063.7 362.238 L2063.7 368.633 L2031.35 368.633 L2031.35 362.238 Z" fill="#000000" fill-rule="evenodd" fill-opacity="1"></path><path clip-path="url(#clip270)" d="M2079.12 312.473 L2108.95 312.473 L2108.95 318.867 L2086.08 318.867 L2086.08 332.635 Q2087.74 332.07 2089.39 331.807 Q2091.05 331.506 2092.7 331.506 Q2102.11 331.506 2107.6 336.659 Q2113.09 341.813 2113.09 350.615 Q2113.09 359.68 2107.45 364.721 Q2101.81 369.724 2091.54 369.724 Q2088 369.724 2084.31 369.122 Q2080.67 368.52 2076.75 367.316 L2076.75 359.68 Q2080.14 361.523 2083.75 362.426 Q2087.36 363.329 2091.39 363.329 Q2097.89 363.329 2101.69 359.906 Q2105.49 356.483 2105.49 350.615 Q2105.49 344.747 2101.69 341.324 Q2097.89 337.901 2091.39 337.901 Q2088.34 337.901 2085.29 338.578 Q2082.28 339.255 2079.12 340.684 L2079.12 312.473 Z" fill="#000000" fill-rule="evenodd" fill-opacity="1"></path><path clip-path="url(#clip270)" d="M2126.14 312.473 L2162.25 312.473 L2162.25 315.708 L2141.87 368.633 L2133.93 368.633 L2153.11 318.867 L2126.14 318.867 L2126.14 312.473 Z" fill="#000000" fill-rule="evenodd" fill-opacity="1"></path><path clip-path="url(#clip270)" d="M2177.07 359.078 L2185.01 359.078 L2185.01 368.633 L2177.07 368.633 L2177.07 359.078 Z" fill="#000000" fill-rule="evenodd" fill-opacity="1"></path><path clip-path="url(#clip270)" d="M2201.64 312.473 L2231.47 312.473 L2231.47 318.867 L2208.6 318.867 L2208.6 332.635 Q2210.25 332.07 2211.91 331.807 Q2213.56 331.506 2215.22 331.506 Q2224.62 331.506 2230.11 336.659 Q2235.6 341.813 2235.6 350.615 Q2235.6 359.68 2229.96 364.721 Q2224.32 369.724 2214.05 369.724 Q2210.51 369.724 2206.83 369.122 Q2203.18 368.52 2199.27 367.316 L2199.27 359.68 Q2202.65 361.523 2206.26 362.426 Q2209.88 363.329 2213.9 363.329 Q2220.41 363.329 2224.21 359.906 Q2228.01 356.483 2228.01 350.615 Q2228.01 344.747 2224.21 341.324 Q2220.41 337.901 2213.9 337.901 Q2210.85 337.901 2207.81 338.578 Q2204.8 339.255 2201.64 340.684 L2201.64 312.473 Z" fill="#000000" fill-rule="evenodd" fill-opacity="1"></path><polyline clip-path="url(#clip270)" style="stroke:#3da44d; stroke-linecap:butt; stroke-linejoin:round; stroke-width:6.5; stroke-opacity:1; fill:none" points="
  1868.51,424.793 2007.15,424.793 
  "></polyline>
<path clip-path="url(#clip270)" d="M2031.35 446.478 L2043.77 446.478 L2043.77 403.634 L2030.26 406.342 L2030.26 399.421 L2043.69 396.713 L2051.29 396.713 L2051.29 446.478 L2063.7 446.478 L2063.7 452.873 L2031.35 452.873 L2031.35 446.478 Z" fill="#000000" fill-rule="evenodd" fill-opacity="1"></path><path clip-path="url(#clip270)" d="M2102.07 422.592 Q2107.52 423.758 2110.57 427.445 Q2113.65 431.131 2113.65 436.548 Q2113.65 444.861 2107.94 449.412 Q2102.22 453.964 2091.69 453.964 Q2088.15 453.964 2084.39 453.249 Q2080.67 452.572 2076.68 451.18 L2076.68 443.845 Q2079.84 445.688 2083.6 446.628 Q2087.36 447.569 2091.46 447.569 Q2098.61 447.569 2102.33 444.748 Q2106.09 441.927 2106.09 436.548 Q2106.09 431.582 2102.6 428.799 Q2099.14 425.978 2092.93 425.978 L2086.38 425.978 L2086.38 419.733 L2093.23 419.733 Q2098.83 419.733 2101.81 417.514 Q2104.78 415.257 2104.78 411.044 Q2104.78 406.718 2101.69 404.424 Q2098.65 402.092 2092.93 402.092 Q2089.81 402.092 2086.23 402.769 Q2082.66 403.446 2078.37 404.875 L2078.37 398.104 Q2082.7 396.901 2086.46 396.299 Q2090.26 395.697 2093.61 395.697 Q2102.26 395.697 2107.3 399.647 Q2112.34 403.559 2112.34 410.254 Q2112.34 414.919 2109.67 418.154 Q2107 421.351 2102.07 422.592 Z" fill="#000000" fill-rule="evenodd" fill-opacity="1"></path><path clip-path="url(#clip270)" d="M2128.14 396.713 L2157.97 396.713 L2157.97 403.107 L2135.1 403.107 L2135.1 416.875 Q2136.75 416.31 2138.41 416.047 Q2140.06 415.746 2141.72 415.746 Q2151.12 415.746 2156.61 420.899 Q2162.1 426.053 2162.1 434.855 Q2162.1 443.92 2156.46 448.961 Q2150.82 453.964 2140.55 453.964 Q2137.01 453.964 2133.33 453.362 Q2129.68 452.76 2125.77 451.556 L2125.77 443.92 Q2129.15 445.763 2132.76 446.666 Q2136.37 447.569 2140.4 447.569 Q2146.91 447.569 2150.71 444.146 Q2154.51 440.723 2154.51 434.855 Q2154.51 428.987 2150.71 425.564 Q2146.91 422.141 2140.4 422.141 Q2137.35 422.141 2134.31 422.818 Q2131.3 423.495 2128.14 424.924 L2128.14 396.713 Z" fill="#000000" fill-rule="evenodd" fill-opacity="1"></path><path clip-path="url(#clip270)" d="M2177.07 443.318 L2185.01 443.318 L2185.01 452.873 L2177.07 452.873 L2177.07 443.318 Z" fill="#000000" fill-rule="evenodd" fill-opacity="1"></path><path clip-path="url(#clip270)" d="M2217.81 401.716 Q2211.94 401.716 2208.97 407.508 Q2206.04 413.263 2206.04 424.849 Q2206.04 436.397 2208.97 442.19 Q2211.94 447.945 2217.81 447.945 Q2223.72 447.945 2226.65 442.19 Q2229.62 436.397 2229.62 424.849 Q2229.62 413.263 2226.65 407.508 Q2223.72 401.716 2217.81 401.716 M2217.81 395.697 Q2227.25 395.697 2232.22 403.183 Q2237.22 410.63 2237.22 424.849 Q2237.22 439.03 2232.22 446.516 Q2227.25 453.964 2217.81 453.964 Q2208.37 453.964 2203.37 446.516 Q2198.4 439.03 2198.4 424.849 Q2198.4 410.63 2203.37 403.183 Q2208.37 395.697 2217.81 395.697 Z" fill="#000000" fill-rule="evenodd" fill-opacity="1"></path><polyline clip-path="url(#clip270)" style="stroke:#c271d2; stroke-linecap:butt; stroke-linejoin:round; stroke-width:6.5; stroke-opacity:1; fill:none" points="
  1868.51,509.033 2007.15,509.033 
  "></polyline>
<path clip-path="url(#clip270)" d="M2033.87 535.947 L2033.87 529.025 Q2036.73 530.379 2039.67 531.094 Q2042.6 531.809 2045.42 531.809 Q2052.94 531.809 2056.89 526.768 Q2060.88 521.69 2061.44 511.384 Q2059.26 514.619 2055.92 516.349 Q2052.57 518.079 2048.5 518.079 Q2040.08 518.079 2035.15 513.001 Q2030.26 507.885 2030.26 499.046 Q2030.26 490.394 2035.38 485.166 Q2040.49 479.937 2048.99 479.937 Q2058.74 479.937 2063.85 487.423 Q2069.01 494.87 2069.01 509.089 Q2069.01 522.367 2062.69 530.304 Q2056.4 538.204 2045.76 538.204 Q2042.9 538.204 2039.97 537.639 Q2037.03 537.075 2033.87 535.947 M2048.99 512.136 Q2054.11 512.136 2057.08 508.638 Q2060.09 505.139 2060.09 499.046 Q2060.09 492.99 2057.08 489.491 Q2054.11 485.956 2048.99 485.956 Q2043.88 485.956 2040.87 489.491 Q2037.9 492.99 2037.9 499.046 Q2037.9 505.139 2040.87 508.638 Q2043.88 512.136 2048.99 512.136 Z" fill="#000000" fill-rule="evenodd" fill-opacity="1"></path><path clip-path="url(#clip270)" d="M2098.91 485.956 Q2093.04 485.956 2090.07 491.748 Q2087.14 497.503 2087.14 509.089 Q2087.14 520.637 2090.07 526.43 Q2093.04 532.185 2098.91 532.185 Q2104.82 532.185 2107.75 526.43 Q2110.72 520.637 2110.72 509.089 Q2110.72 497.503 2107.75 491.748 Q2104.82 485.956 2098.91 485.956 M2098.91 479.937 Q2108.35 479.937 2113.32 487.423 Q2118.32 494.87 2118.32 509.089 Q2118.32 523.27 2113.32 530.756 Q2108.35 538.204 2098.91 538.204 Q2089.47 538.204 2084.47 530.756 Q2079.5 523.27 2079.5 509.089 Q2079.5 494.87 2084.47 487.423 Q2089.47 479.937 2098.91 479.937 Z" fill="#000000" fill-rule="evenodd" fill-opacity="1"></path><path clip-path="url(#clip270)" d="M2131.67 527.558 L2139.61 527.558 L2139.61 537.113 L2131.67 537.113 L2131.67 527.558 Z" fill="#000000" fill-rule="evenodd" fill-opacity="1"></path><path clip-path="url(#clip270)" d="M2172.41 485.956 Q2166.54 485.956 2163.57 491.748 Q2160.64 497.503 2160.64 509.089 Q2160.64 520.637 2163.57 526.43 Q2166.54 532.185 2172.41 532.185 Q2178.32 532.185 2181.25 526.43 Q2184.22 520.637 2184.22 509.089 Q2184.22 497.503 2181.25 491.748 Q2178.32 485.956 2172.41 485.956 M2172.41 479.937 Q2181.85 479.937 2186.82 487.423 Q2191.82 494.87 2191.82 509.089 Q2191.82 523.27 2186.82 530.756 Q2181.85 538.204 2172.41 538.204 Q2162.97 538.204 2157.97 530.756 Q2153 523.27 2153 509.089 Q2153 494.87 2157.97 487.423 Q2162.97 479.937 2172.41 479.937 Z" fill="#000000" fill-rule="evenodd" fill-opacity="1"></path><polyline clip-path="url(#clip270)" style="stroke:#ac8d18; stroke-linecap:butt; stroke-linejoin:round; stroke-width:6.5; stroke-opacity:1; fill:none" points="
  1868.51,593.273 2007.15,593.273 
  "></polyline>
<path clip-path="url(#clip270)" d="M2049.67 570.196 Q2043.8 570.196 2040.83 575.988 Q2037.9 581.743 2037.9 593.329 Q2037.9 604.877 2040.83 610.67 Q2043.8 616.425 2049.67 616.425 Q2055.58 616.425 2058.51 610.67 Q2061.48 604.877 2061.48 593.329 Q2061.48 581.743 2058.51 575.988 Q2055.58 570.196 2049.67 570.196 M2049.67 564.177 Q2059.11 564.177 2064.08 571.663 Q2069.08 579.11 2069.08 593.329 Q2069.08 607.51 2064.08 614.996 Q2059.11 622.444 2049.67 622.444 Q2040.23 622.444 2035.23 614.996 Q2030.26 607.51 2030.26 593.329 Q2030.26 579.11 2035.23 571.663 Q2040.23 564.177 2049.67 564.177 Z" fill="#000000" fill-rule="evenodd" fill-opacity="1"></path><path clip-path="url(#clip270)" d="M2082.43 611.798 L2090.37 611.798 L2090.37 621.353 L2082.43 621.353 L2082.43 611.798 Z" fill="#000000" fill-rule="evenodd" fill-opacity="1"></path><path clip-path="url(#clip270)" d="M2123.17 570.196 Q2117.3 570.196 2114.33 575.988 Q2111.4 581.743 2111.4 593.329 Q2111.4 604.877 2114.33 610.67 Q2117.3 616.425 2123.17 616.425 Q2129.08 616.425 2132.01 610.67 Q2134.98 604.877 2134.98 593.329 Q2134.98 581.743 2132.01 575.988 Q2129.08 570.196 2123.17 570.196 M2123.17 564.177 Q2132.61 564.177 2137.58 571.663 Q2142.58 579.11 2142.58 593.329 Q2142.58 607.51 2137.58 614.996 Q2132.61 622.444 2123.17 622.444 Q2113.73 622.444 2108.73 614.996 Q2103.76 607.51 2103.76 593.329 Q2103.76 579.11 2108.73 571.663 Q2113.73 564.177 2123.17 564.177 Z" fill="#000000" fill-rule="evenodd" fill-opacity="1"></path></svg>